G04 #@! TF.GenerationSoftware,KiCad,Pcbnew,(5.1.2)-2*
G04 #@! TF.CreationDate,2019-08-20T13:38:56-07:00*
G04 #@! TF.ProjectId,pcb_design,7063625f-6465-4736-9967-6e2e6b696361,rev?*
G04 #@! TF.SameCoordinates,Original*
G04 #@! TF.FileFunction,Soldermask,Bot*
G04 #@! TF.FilePolarity,Negative*
%FSLAX46Y46*%
G04 Gerber Fmt 4.6, Leading zero omitted, Abs format (unit mm)*
G04 Created by KiCad (PCBNEW (5.1.2)-2) date 2019-08-20 13:38:56*
%MOMM*%
%LPD*%
G04 APERTURE LIST*
%ADD10C,0.100000*%
G04 APERTURE END LIST*
D10*
G36*
X166672585Y-106428802D02*
G01*
X166822410Y-106458604D01*
X167104674Y-106575521D01*
X167358705Y-106745259D01*
X167574741Y-106961295D01*
X167744479Y-107215326D01*
X167861396Y-107497590D01*
X167921000Y-107797240D01*
X167921000Y-108102760D01*
X167861396Y-108402410D01*
X167744479Y-108684674D01*
X167574741Y-108938705D01*
X167358705Y-109154741D01*
X167104674Y-109324479D01*
X166822410Y-109441396D01*
X166672585Y-109471198D01*
X166522761Y-109501000D01*
X166217239Y-109501000D01*
X166067415Y-109471198D01*
X165917590Y-109441396D01*
X165635326Y-109324479D01*
X165381295Y-109154741D01*
X165165259Y-108938705D01*
X164995521Y-108684674D01*
X164878604Y-108402410D01*
X164819000Y-108102760D01*
X164819000Y-107797240D01*
X164878604Y-107497590D01*
X164995521Y-107215326D01*
X165165259Y-106961295D01*
X165381295Y-106745259D01*
X165635326Y-106575521D01*
X165917590Y-106458604D01*
X166067415Y-106428802D01*
X166217239Y-106399000D01*
X166522761Y-106399000D01*
X166672585Y-106428802D01*
X166672585Y-106428802D01*
G37*
G36*
X113332585Y-106428802D02*
G01*
X113482410Y-106458604D01*
X113764674Y-106575521D01*
X114018705Y-106745259D01*
X114234741Y-106961295D01*
X114404479Y-107215326D01*
X114521396Y-107497590D01*
X114581000Y-107797240D01*
X114581000Y-108102760D01*
X114521396Y-108402410D01*
X114404479Y-108684674D01*
X114234741Y-108938705D01*
X114018705Y-109154741D01*
X113764674Y-109324479D01*
X113482410Y-109441396D01*
X113332585Y-109471198D01*
X113182761Y-109501000D01*
X112877239Y-109501000D01*
X112727415Y-109471198D01*
X112577590Y-109441396D01*
X112295326Y-109324479D01*
X112041295Y-109154741D01*
X111825259Y-108938705D01*
X111655521Y-108684674D01*
X111538604Y-108402410D01*
X111479000Y-108102760D01*
X111479000Y-107797240D01*
X111538604Y-107497590D01*
X111655521Y-107215326D01*
X111825259Y-106961295D01*
X112041295Y-106745259D01*
X112295326Y-106575521D01*
X112577590Y-106458604D01*
X112727415Y-106428802D01*
X112877239Y-106399000D01*
X113182761Y-106399000D01*
X113332585Y-106428802D01*
X113332585Y-106428802D01*
G37*
G36*
X151360942Y-106780442D02*
G01*
X151508901Y-106841729D01*
X151642055Y-106930699D01*
X151755301Y-107043945D01*
X151844271Y-107177099D01*
X151905558Y-107325058D01*
X151936800Y-107482125D01*
X151936800Y-107642275D01*
X151905558Y-107799342D01*
X151844271Y-107947301D01*
X151755301Y-108080455D01*
X151642055Y-108193701D01*
X151508901Y-108282671D01*
X151360942Y-108343958D01*
X151203875Y-108375200D01*
X151043725Y-108375200D01*
X150886658Y-108343958D01*
X150738699Y-108282671D01*
X150605545Y-108193701D01*
X150492299Y-108080455D01*
X150403329Y-107947301D01*
X150342042Y-107799342D01*
X150310800Y-107642275D01*
X150310800Y-107482125D01*
X150342042Y-107325058D01*
X150403329Y-107177099D01*
X150492299Y-107043945D01*
X150605545Y-106930699D01*
X150738699Y-106841729D01*
X150886658Y-106780442D01*
X151043725Y-106749200D01*
X151203875Y-106749200D01*
X151360942Y-106780442D01*
X151360942Y-106780442D01*
G37*
G36*
X148820942Y-106780442D02*
G01*
X148968901Y-106841729D01*
X149102055Y-106930699D01*
X149215301Y-107043945D01*
X149304271Y-107177099D01*
X149365558Y-107325058D01*
X149396800Y-107482125D01*
X149396800Y-107642275D01*
X149365558Y-107799342D01*
X149304271Y-107947301D01*
X149215301Y-108080455D01*
X149102055Y-108193701D01*
X148968901Y-108282671D01*
X148820942Y-108343958D01*
X148663875Y-108375200D01*
X148503725Y-108375200D01*
X148346658Y-108343958D01*
X148198699Y-108282671D01*
X148065545Y-108193701D01*
X147952299Y-108080455D01*
X147863329Y-107947301D01*
X147802042Y-107799342D01*
X147770800Y-107642275D01*
X147770800Y-107482125D01*
X147802042Y-107325058D01*
X147863329Y-107177099D01*
X147952299Y-107043945D01*
X148065545Y-106930699D01*
X148198699Y-106841729D01*
X148346658Y-106780442D01*
X148503725Y-106749200D01*
X148663875Y-106749200D01*
X148820942Y-106780442D01*
X148820942Y-106780442D01*
G37*
G36*
X146280942Y-106780442D02*
G01*
X146428901Y-106841729D01*
X146562055Y-106930699D01*
X146675301Y-107043945D01*
X146764271Y-107177099D01*
X146825558Y-107325058D01*
X146856800Y-107482125D01*
X146856800Y-107642275D01*
X146825558Y-107799342D01*
X146764271Y-107947301D01*
X146675301Y-108080455D01*
X146562055Y-108193701D01*
X146428901Y-108282671D01*
X146280942Y-108343958D01*
X146123875Y-108375200D01*
X145963725Y-108375200D01*
X145806658Y-108343958D01*
X145658699Y-108282671D01*
X145525545Y-108193701D01*
X145412299Y-108080455D01*
X145323329Y-107947301D01*
X145262042Y-107799342D01*
X145230800Y-107642275D01*
X145230800Y-107482125D01*
X145262042Y-107325058D01*
X145323329Y-107177099D01*
X145412299Y-107043945D01*
X145525545Y-106930699D01*
X145658699Y-106841729D01*
X145806658Y-106780442D01*
X145963725Y-106749200D01*
X146123875Y-106749200D01*
X146280942Y-106780442D01*
X146280942Y-106780442D01*
G37*
G36*
X141200942Y-106780442D02*
G01*
X141348901Y-106841729D01*
X141482055Y-106930699D01*
X141595301Y-107043945D01*
X141684271Y-107177099D01*
X141745558Y-107325058D01*
X141776800Y-107482125D01*
X141776800Y-107642275D01*
X141745558Y-107799342D01*
X141684271Y-107947301D01*
X141595301Y-108080455D01*
X141482055Y-108193701D01*
X141348901Y-108282671D01*
X141200942Y-108343958D01*
X141043875Y-108375200D01*
X140883725Y-108375200D01*
X140726658Y-108343958D01*
X140578699Y-108282671D01*
X140445545Y-108193701D01*
X140332299Y-108080455D01*
X140243329Y-107947301D01*
X140182042Y-107799342D01*
X140150800Y-107642275D01*
X140150800Y-107482125D01*
X140182042Y-107325058D01*
X140243329Y-107177099D01*
X140332299Y-107043945D01*
X140445545Y-106930699D01*
X140578699Y-106841729D01*
X140726658Y-106780442D01*
X140883725Y-106749200D01*
X141043875Y-106749200D01*
X141200942Y-106780442D01*
X141200942Y-106780442D01*
G37*
G36*
X138660942Y-106780442D02*
G01*
X138808901Y-106841729D01*
X138942055Y-106930699D01*
X139055301Y-107043945D01*
X139144271Y-107177099D01*
X139205558Y-107325058D01*
X139236800Y-107482125D01*
X139236800Y-107642275D01*
X139205558Y-107799342D01*
X139144271Y-107947301D01*
X139055301Y-108080455D01*
X138942055Y-108193701D01*
X138808901Y-108282671D01*
X138660942Y-108343958D01*
X138503875Y-108375200D01*
X138343725Y-108375200D01*
X138186658Y-108343958D01*
X138038699Y-108282671D01*
X137905545Y-108193701D01*
X137792299Y-108080455D01*
X137703329Y-107947301D01*
X137642042Y-107799342D01*
X137610800Y-107642275D01*
X137610800Y-107482125D01*
X137642042Y-107325058D01*
X137703329Y-107177099D01*
X137792299Y-107043945D01*
X137905545Y-106930699D01*
X138038699Y-106841729D01*
X138186658Y-106780442D01*
X138343725Y-106749200D01*
X138503875Y-106749200D01*
X138660942Y-106780442D01*
X138660942Y-106780442D01*
G37*
G36*
X136120942Y-106780442D02*
G01*
X136268901Y-106841729D01*
X136402055Y-106930699D01*
X136515301Y-107043945D01*
X136604271Y-107177099D01*
X136665558Y-107325058D01*
X136696800Y-107482125D01*
X136696800Y-107642275D01*
X136665558Y-107799342D01*
X136604271Y-107947301D01*
X136515301Y-108080455D01*
X136402055Y-108193701D01*
X136268901Y-108282671D01*
X136120942Y-108343958D01*
X135963875Y-108375200D01*
X135803725Y-108375200D01*
X135646658Y-108343958D01*
X135498699Y-108282671D01*
X135365545Y-108193701D01*
X135252299Y-108080455D01*
X135163329Y-107947301D01*
X135102042Y-107799342D01*
X135070800Y-107642275D01*
X135070800Y-107482125D01*
X135102042Y-107325058D01*
X135163329Y-107177099D01*
X135252299Y-107043945D01*
X135365545Y-106930699D01*
X135498699Y-106841729D01*
X135646658Y-106780442D01*
X135803725Y-106749200D01*
X135963875Y-106749200D01*
X136120942Y-106780442D01*
X136120942Y-106780442D01*
G37*
G36*
X133580942Y-106780442D02*
G01*
X133728901Y-106841729D01*
X133862055Y-106930699D01*
X133975301Y-107043945D01*
X134064271Y-107177099D01*
X134125558Y-107325058D01*
X134156800Y-107482125D01*
X134156800Y-107642275D01*
X134125558Y-107799342D01*
X134064271Y-107947301D01*
X133975301Y-108080455D01*
X133862055Y-108193701D01*
X133728901Y-108282671D01*
X133580942Y-108343958D01*
X133423875Y-108375200D01*
X133263725Y-108375200D01*
X133106658Y-108343958D01*
X132958699Y-108282671D01*
X132825545Y-108193701D01*
X132712299Y-108080455D01*
X132623329Y-107947301D01*
X132562042Y-107799342D01*
X132530800Y-107642275D01*
X132530800Y-107482125D01*
X132562042Y-107325058D01*
X132623329Y-107177099D01*
X132712299Y-107043945D01*
X132825545Y-106930699D01*
X132958699Y-106841729D01*
X133106658Y-106780442D01*
X133263725Y-106749200D01*
X133423875Y-106749200D01*
X133580942Y-106780442D01*
X133580942Y-106780442D01*
G37*
G36*
X131040942Y-106780442D02*
G01*
X131188901Y-106841729D01*
X131322055Y-106930699D01*
X131435301Y-107043945D01*
X131524271Y-107177099D01*
X131585558Y-107325058D01*
X131616800Y-107482125D01*
X131616800Y-107642275D01*
X131585558Y-107799342D01*
X131524271Y-107947301D01*
X131435301Y-108080455D01*
X131322055Y-108193701D01*
X131188901Y-108282671D01*
X131040942Y-108343958D01*
X130883875Y-108375200D01*
X130723725Y-108375200D01*
X130566658Y-108343958D01*
X130418699Y-108282671D01*
X130285545Y-108193701D01*
X130172299Y-108080455D01*
X130083329Y-107947301D01*
X130022042Y-107799342D01*
X129990800Y-107642275D01*
X129990800Y-107482125D01*
X130022042Y-107325058D01*
X130083329Y-107177099D01*
X130172299Y-107043945D01*
X130285545Y-106930699D01*
X130418699Y-106841729D01*
X130566658Y-106780442D01*
X130723725Y-106749200D01*
X130883875Y-106749200D01*
X131040942Y-106780442D01*
X131040942Y-106780442D01*
G37*
G36*
X128500942Y-106780442D02*
G01*
X128648901Y-106841729D01*
X128782055Y-106930699D01*
X128895301Y-107043945D01*
X128984271Y-107177099D01*
X129045558Y-107325058D01*
X129076800Y-107482125D01*
X129076800Y-107642275D01*
X129045558Y-107799342D01*
X128984271Y-107947301D01*
X128895301Y-108080455D01*
X128782055Y-108193701D01*
X128648901Y-108282671D01*
X128500942Y-108343958D01*
X128343875Y-108375200D01*
X128183725Y-108375200D01*
X128026658Y-108343958D01*
X127878699Y-108282671D01*
X127745545Y-108193701D01*
X127632299Y-108080455D01*
X127543329Y-107947301D01*
X127482042Y-107799342D01*
X127450800Y-107642275D01*
X127450800Y-107482125D01*
X127482042Y-107325058D01*
X127543329Y-107177099D01*
X127632299Y-107043945D01*
X127745545Y-106930699D01*
X127878699Y-106841729D01*
X128026658Y-106780442D01*
X128183725Y-106749200D01*
X128343875Y-106749200D01*
X128500942Y-106780442D01*
X128500942Y-106780442D01*
G37*
G36*
X143740942Y-106780442D02*
G01*
X143888901Y-106841729D01*
X144022055Y-106930699D01*
X144135301Y-107043945D01*
X144224271Y-107177099D01*
X144285558Y-107325058D01*
X144316800Y-107482125D01*
X144316800Y-107642275D01*
X144285558Y-107799342D01*
X144224271Y-107947301D01*
X144135301Y-108080455D01*
X144022055Y-108193701D01*
X143888901Y-108282671D01*
X143740942Y-108343958D01*
X143583875Y-108375200D01*
X143423725Y-108375200D01*
X143266658Y-108343958D01*
X143118699Y-108282671D01*
X142985545Y-108193701D01*
X142872299Y-108080455D01*
X142783329Y-107947301D01*
X142722042Y-107799342D01*
X142690800Y-107642275D01*
X142690800Y-107482125D01*
X142722042Y-107325058D01*
X142783329Y-107177099D01*
X142872299Y-107043945D01*
X142985545Y-106930699D01*
X143118699Y-106841729D01*
X143266658Y-106780442D01*
X143423725Y-106749200D01*
X143583875Y-106749200D01*
X143740942Y-106780442D01*
X143740942Y-106780442D01*
G37*
G36*
X133580942Y-104240442D02*
G01*
X133728901Y-104301729D01*
X133862055Y-104390699D01*
X133975301Y-104503945D01*
X134064271Y-104637099D01*
X134125558Y-104785058D01*
X134156800Y-104942125D01*
X134156800Y-105102275D01*
X134125558Y-105259342D01*
X134064271Y-105407301D01*
X133975301Y-105540455D01*
X133862055Y-105653701D01*
X133728901Y-105742671D01*
X133580942Y-105803958D01*
X133423875Y-105835200D01*
X133263725Y-105835200D01*
X133106658Y-105803958D01*
X132958699Y-105742671D01*
X132825545Y-105653701D01*
X132712299Y-105540455D01*
X132623329Y-105407301D01*
X132562042Y-105259342D01*
X132530800Y-105102275D01*
X132530800Y-104942125D01*
X132562042Y-104785058D01*
X132623329Y-104637099D01*
X132712299Y-104503945D01*
X132825545Y-104390699D01*
X132958699Y-104301729D01*
X133106658Y-104240442D01*
X133263725Y-104209200D01*
X133423875Y-104209200D01*
X133580942Y-104240442D01*
X133580942Y-104240442D01*
G37*
G36*
X136120942Y-104240442D02*
G01*
X136268901Y-104301729D01*
X136402055Y-104390699D01*
X136515301Y-104503945D01*
X136604271Y-104637099D01*
X136665558Y-104785058D01*
X136696800Y-104942125D01*
X136696800Y-105102275D01*
X136665558Y-105259342D01*
X136604271Y-105407301D01*
X136515301Y-105540455D01*
X136402055Y-105653701D01*
X136268901Y-105742671D01*
X136120942Y-105803958D01*
X135963875Y-105835200D01*
X135803725Y-105835200D01*
X135646658Y-105803958D01*
X135498699Y-105742671D01*
X135365545Y-105653701D01*
X135252299Y-105540455D01*
X135163329Y-105407301D01*
X135102042Y-105259342D01*
X135070800Y-105102275D01*
X135070800Y-104942125D01*
X135102042Y-104785058D01*
X135163329Y-104637099D01*
X135252299Y-104503945D01*
X135365545Y-104390699D01*
X135498699Y-104301729D01*
X135646658Y-104240442D01*
X135803725Y-104209200D01*
X135963875Y-104209200D01*
X136120942Y-104240442D01*
X136120942Y-104240442D01*
G37*
G36*
X138660942Y-104240442D02*
G01*
X138808901Y-104301729D01*
X138942055Y-104390699D01*
X139055301Y-104503945D01*
X139144271Y-104637099D01*
X139205558Y-104785058D01*
X139236800Y-104942125D01*
X139236800Y-105102275D01*
X139205558Y-105259342D01*
X139144271Y-105407301D01*
X139055301Y-105540455D01*
X138942055Y-105653701D01*
X138808901Y-105742671D01*
X138660942Y-105803958D01*
X138503875Y-105835200D01*
X138343725Y-105835200D01*
X138186658Y-105803958D01*
X138038699Y-105742671D01*
X137905545Y-105653701D01*
X137792299Y-105540455D01*
X137703329Y-105407301D01*
X137642042Y-105259342D01*
X137610800Y-105102275D01*
X137610800Y-104942125D01*
X137642042Y-104785058D01*
X137703329Y-104637099D01*
X137792299Y-104503945D01*
X137905545Y-104390699D01*
X138038699Y-104301729D01*
X138186658Y-104240442D01*
X138343725Y-104209200D01*
X138503875Y-104209200D01*
X138660942Y-104240442D01*
X138660942Y-104240442D01*
G37*
G36*
X141200942Y-104240442D02*
G01*
X141348901Y-104301729D01*
X141482055Y-104390699D01*
X141595301Y-104503945D01*
X141684271Y-104637099D01*
X141745558Y-104785058D01*
X141776800Y-104942125D01*
X141776800Y-105102275D01*
X141745558Y-105259342D01*
X141684271Y-105407301D01*
X141595301Y-105540455D01*
X141482055Y-105653701D01*
X141348901Y-105742671D01*
X141200942Y-105803958D01*
X141043875Y-105835200D01*
X140883725Y-105835200D01*
X140726658Y-105803958D01*
X140578699Y-105742671D01*
X140445545Y-105653701D01*
X140332299Y-105540455D01*
X140243329Y-105407301D01*
X140182042Y-105259342D01*
X140150800Y-105102275D01*
X140150800Y-104942125D01*
X140182042Y-104785058D01*
X140243329Y-104637099D01*
X140332299Y-104503945D01*
X140445545Y-104390699D01*
X140578699Y-104301729D01*
X140726658Y-104240442D01*
X140883725Y-104209200D01*
X141043875Y-104209200D01*
X141200942Y-104240442D01*
X141200942Y-104240442D01*
G37*
G36*
X131040942Y-104240442D02*
G01*
X131188901Y-104301729D01*
X131322055Y-104390699D01*
X131435301Y-104503945D01*
X131524271Y-104637099D01*
X131585558Y-104785058D01*
X131616800Y-104942125D01*
X131616800Y-105102275D01*
X131585558Y-105259342D01*
X131524271Y-105407301D01*
X131435301Y-105540455D01*
X131322055Y-105653701D01*
X131188901Y-105742671D01*
X131040942Y-105803958D01*
X130883875Y-105835200D01*
X130723725Y-105835200D01*
X130566658Y-105803958D01*
X130418699Y-105742671D01*
X130285545Y-105653701D01*
X130172299Y-105540455D01*
X130083329Y-105407301D01*
X130022042Y-105259342D01*
X129990800Y-105102275D01*
X129990800Y-104942125D01*
X130022042Y-104785058D01*
X130083329Y-104637099D01*
X130172299Y-104503945D01*
X130285545Y-104390699D01*
X130418699Y-104301729D01*
X130566658Y-104240442D01*
X130723725Y-104209200D01*
X130883875Y-104209200D01*
X131040942Y-104240442D01*
X131040942Y-104240442D01*
G37*
G36*
X148820942Y-104240442D02*
G01*
X148968901Y-104301729D01*
X149102055Y-104390699D01*
X149215301Y-104503945D01*
X149304271Y-104637099D01*
X149365558Y-104785058D01*
X149396800Y-104942125D01*
X149396800Y-105102275D01*
X149365558Y-105259342D01*
X149304271Y-105407301D01*
X149215301Y-105540455D01*
X149102055Y-105653701D01*
X148968901Y-105742671D01*
X148820942Y-105803958D01*
X148663875Y-105835200D01*
X148503725Y-105835200D01*
X148346658Y-105803958D01*
X148198699Y-105742671D01*
X148065545Y-105653701D01*
X147952299Y-105540455D01*
X147863329Y-105407301D01*
X147802042Y-105259342D01*
X147770800Y-105102275D01*
X147770800Y-104942125D01*
X147802042Y-104785058D01*
X147863329Y-104637099D01*
X147952299Y-104503945D01*
X148065545Y-104390699D01*
X148198699Y-104301729D01*
X148346658Y-104240442D01*
X148503725Y-104209200D01*
X148663875Y-104209200D01*
X148820942Y-104240442D01*
X148820942Y-104240442D01*
G37*
G36*
X151360942Y-104240442D02*
G01*
X151508901Y-104301729D01*
X151642055Y-104390699D01*
X151755301Y-104503945D01*
X151844271Y-104637099D01*
X151905558Y-104785058D01*
X151936800Y-104942125D01*
X151936800Y-105102275D01*
X151905558Y-105259342D01*
X151844271Y-105407301D01*
X151755301Y-105540455D01*
X151642055Y-105653701D01*
X151508901Y-105742671D01*
X151360942Y-105803958D01*
X151203875Y-105835200D01*
X151043725Y-105835200D01*
X150886658Y-105803958D01*
X150738699Y-105742671D01*
X150605545Y-105653701D01*
X150492299Y-105540455D01*
X150403329Y-105407301D01*
X150342042Y-105259342D01*
X150310800Y-105102275D01*
X150310800Y-104942125D01*
X150342042Y-104785058D01*
X150403329Y-104637099D01*
X150492299Y-104503945D01*
X150605545Y-104390699D01*
X150738699Y-104301729D01*
X150886658Y-104240442D01*
X151043725Y-104209200D01*
X151203875Y-104209200D01*
X151360942Y-104240442D01*
X151360942Y-104240442D01*
G37*
G36*
X128500942Y-104240442D02*
G01*
X128648901Y-104301729D01*
X128782055Y-104390699D01*
X128895301Y-104503945D01*
X128984271Y-104637099D01*
X129045558Y-104785058D01*
X129076800Y-104942125D01*
X129076800Y-105102275D01*
X129045558Y-105259342D01*
X128984271Y-105407301D01*
X128895301Y-105540455D01*
X128782055Y-105653701D01*
X128648901Y-105742671D01*
X128500942Y-105803958D01*
X128343875Y-105835200D01*
X128183725Y-105835200D01*
X128026658Y-105803958D01*
X127878699Y-105742671D01*
X127745545Y-105653701D01*
X127632299Y-105540455D01*
X127543329Y-105407301D01*
X127482042Y-105259342D01*
X127450800Y-105102275D01*
X127450800Y-104942125D01*
X127482042Y-104785058D01*
X127543329Y-104637099D01*
X127632299Y-104503945D01*
X127745545Y-104390699D01*
X127878699Y-104301729D01*
X128026658Y-104240442D01*
X128183725Y-104209200D01*
X128343875Y-104209200D01*
X128500942Y-104240442D01*
X128500942Y-104240442D01*
G37*
G36*
X143740942Y-104240442D02*
G01*
X143888901Y-104301729D01*
X144022055Y-104390699D01*
X144135301Y-104503945D01*
X144224271Y-104637099D01*
X144285558Y-104785058D01*
X144316800Y-104942125D01*
X144316800Y-105102275D01*
X144285558Y-105259342D01*
X144224271Y-105407301D01*
X144135301Y-105540455D01*
X144022055Y-105653701D01*
X143888901Y-105742671D01*
X143740942Y-105803958D01*
X143583875Y-105835200D01*
X143423725Y-105835200D01*
X143266658Y-105803958D01*
X143118699Y-105742671D01*
X142985545Y-105653701D01*
X142872299Y-105540455D01*
X142783329Y-105407301D01*
X142722042Y-105259342D01*
X142690800Y-105102275D01*
X142690800Y-104942125D01*
X142722042Y-104785058D01*
X142783329Y-104637099D01*
X142872299Y-104503945D01*
X142985545Y-104390699D01*
X143118699Y-104301729D01*
X143266658Y-104240442D01*
X143423725Y-104209200D01*
X143583875Y-104209200D01*
X143740942Y-104240442D01*
X143740942Y-104240442D01*
G37*
G36*
X146280942Y-104240442D02*
G01*
X146428901Y-104301729D01*
X146562055Y-104390699D01*
X146675301Y-104503945D01*
X146764271Y-104637099D01*
X146825558Y-104785058D01*
X146856800Y-104942125D01*
X146856800Y-105102275D01*
X146825558Y-105259342D01*
X146764271Y-105407301D01*
X146675301Y-105540455D01*
X146562055Y-105653701D01*
X146428901Y-105742671D01*
X146280942Y-105803958D01*
X146123875Y-105835200D01*
X145963725Y-105835200D01*
X145806658Y-105803958D01*
X145658699Y-105742671D01*
X145525545Y-105653701D01*
X145412299Y-105540455D01*
X145323329Y-105407301D01*
X145262042Y-105259342D01*
X145230800Y-105102275D01*
X145230800Y-104942125D01*
X145262042Y-104785058D01*
X145323329Y-104637099D01*
X145412299Y-104503945D01*
X145525545Y-104390699D01*
X145658699Y-104301729D01*
X145806658Y-104240442D01*
X145963725Y-104209200D01*
X146123875Y-104209200D01*
X146280942Y-104240442D01*
X146280942Y-104240442D01*
G37*
G36*
X152704473Y-99605937D02*
G01*
X152832049Y-99658781D01*
X152946859Y-99735494D01*
X153044505Y-99833140D01*
X153121218Y-99947950D01*
X153174062Y-100075526D01*
X153201000Y-100210955D01*
X153201000Y-100349043D01*
X153174062Y-100484472D01*
X153121218Y-100612048D01*
X153044505Y-100726858D01*
X152946859Y-100824504D01*
X152832049Y-100901217D01*
X152704473Y-100954061D01*
X152569044Y-100980999D01*
X152430956Y-100980999D01*
X152295527Y-100954061D01*
X152167951Y-100901217D01*
X152053141Y-100824504D01*
X151955495Y-100726858D01*
X151878782Y-100612048D01*
X151825938Y-100484472D01*
X151799000Y-100349043D01*
X151799000Y-100210955D01*
X151825938Y-100075526D01*
X151878782Y-99947950D01*
X151955495Y-99833140D01*
X152053141Y-99735494D01*
X152167951Y-99658781D01*
X152295527Y-99605937D01*
X152430956Y-99578999D01*
X152569044Y-99578999D01*
X152704473Y-99605937D01*
X152704473Y-99605937D01*
G37*
G36*
X140004473Y-99605937D02*
G01*
X140132049Y-99658781D01*
X140246859Y-99735494D01*
X140344505Y-99833140D01*
X140421218Y-99947950D01*
X140474062Y-100075526D01*
X140501000Y-100210955D01*
X140501000Y-100349043D01*
X140474062Y-100484472D01*
X140421218Y-100612048D01*
X140344505Y-100726858D01*
X140246859Y-100824504D01*
X140132049Y-100901217D01*
X140004473Y-100954061D01*
X139869044Y-100980999D01*
X139730956Y-100980999D01*
X139595527Y-100954061D01*
X139467951Y-100901217D01*
X139353141Y-100824504D01*
X139255495Y-100726858D01*
X139178782Y-100612048D01*
X139125938Y-100484472D01*
X139099000Y-100349043D01*
X139099000Y-100210955D01*
X139125938Y-100075526D01*
X139178782Y-99947950D01*
X139255495Y-99833140D01*
X139353141Y-99735494D01*
X139467951Y-99658781D01*
X139595527Y-99605937D01*
X139730956Y-99578999D01*
X139869044Y-99578999D01*
X140004473Y-99605937D01*
X140004473Y-99605937D01*
G37*
G36*
X142544473Y-99605937D02*
G01*
X142672049Y-99658781D01*
X142786859Y-99735494D01*
X142884505Y-99833140D01*
X142961218Y-99947950D01*
X143014062Y-100075526D01*
X143041000Y-100210955D01*
X143041000Y-100349043D01*
X143014062Y-100484472D01*
X142961218Y-100612048D01*
X142884505Y-100726858D01*
X142786859Y-100824504D01*
X142672049Y-100901217D01*
X142544473Y-100954061D01*
X142409044Y-100980999D01*
X142270956Y-100980999D01*
X142135527Y-100954061D01*
X142007951Y-100901217D01*
X141893141Y-100824504D01*
X141795495Y-100726858D01*
X141718782Y-100612048D01*
X141665938Y-100484472D01*
X141639000Y-100349043D01*
X141639000Y-100210955D01*
X141665938Y-100075526D01*
X141718782Y-99947950D01*
X141795495Y-99833140D01*
X141893141Y-99735494D01*
X142007951Y-99658781D01*
X142135527Y-99605937D01*
X142270956Y-99578999D01*
X142409044Y-99578999D01*
X142544473Y-99605937D01*
X142544473Y-99605937D01*
G37*
G36*
X145084473Y-99605937D02*
G01*
X145212049Y-99658781D01*
X145326859Y-99735494D01*
X145424505Y-99833140D01*
X145501218Y-99947950D01*
X145554062Y-100075526D01*
X145581000Y-100210955D01*
X145581000Y-100349043D01*
X145554062Y-100484472D01*
X145501218Y-100612048D01*
X145424505Y-100726858D01*
X145326859Y-100824504D01*
X145212049Y-100901217D01*
X145084473Y-100954061D01*
X144949044Y-100980999D01*
X144810956Y-100980999D01*
X144675527Y-100954061D01*
X144547951Y-100901217D01*
X144433141Y-100824504D01*
X144335495Y-100726858D01*
X144258782Y-100612048D01*
X144205938Y-100484472D01*
X144179000Y-100349043D01*
X144179000Y-100210955D01*
X144205938Y-100075526D01*
X144258782Y-99947950D01*
X144335495Y-99833140D01*
X144433141Y-99735494D01*
X144547951Y-99658781D01*
X144675527Y-99605937D01*
X144810956Y-99578999D01*
X144949044Y-99578999D01*
X145084473Y-99605937D01*
X145084473Y-99605937D01*
G37*
G36*
X147624473Y-99605937D02*
G01*
X147752049Y-99658781D01*
X147866859Y-99735494D01*
X147964505Y-99833140D01*
X148041218Y-99947950D01*
X148094062Y-100075526D01*
X148121000Y-100210955D01*
X148121000Y-100349043D01*
X148094062Y-100484472D01*
X148041218Y-100612048D01*
X147964505Y-100726858D01*
X147866859Y-100824504D01*
X147752049Y-100901217D01*
X147624473Y-100954061D01*
X147489044Y-100980999D01*
X147350956Y-100980999D01*
X147215527Y-100954061D01*
X147087951Y-100901217D01*
X146973141Y-100824504D01*
X146875495Y-100726858D01*
X146798782Y-100612048D01*
X146745938Y-100484472D01*
X146719000Y-100349043D01*
X146719000Y-100210955D01*
X146745938Y-100075526D01*
X146798782Y-99947950D01*
X146875495Y-99833140D01*
X146973141Y-99735494D01*
X147087951Y-99658781D01*
X147215527Y-99605937D01*
X147350956Y-99578999D01*
X147489044Y-99578999D01*
X147624473Y-99605937D01*
X147624473Y-99605937D01*
G37*
G36*
X150164473Y-99605937D02*
G01*
X150292049Y-99658781D01*
X150406859Y-99735494D01*
X150504505Y-99833140D01*
X150581218Y-99947950D01*
X150634062Y-100075526D01*
X150661000Y-100210955D01*
X150661000Y-100349043D01*
X150634062Y-100484472D01*
X150581218Y-100612048D01*
X150504505Y-100726858D01*
X150406859Y-100824504D01*
X150292049Y-100901217D01*
X150164473Y-100954061D01*
X150029044Y-100980999D01*
X149890956Y-100980999D01*
X149755527Y-100954061D01*
X149627951Y-100901217D01*
X149513141Y-100824504D01*
X149415495Y-100726858D01*
X149338782Y-100612048D01*
X149285938Y-100484472D01*
X149259000Y-100349043D01*
X149259000Y-100210955D01*
X149285938Y-100075526D01*
X149338782Y-99947950D01*
X149415495Y-99833140D01*
X149513141Y-99735494D01*
X149627951Y-99658781D01*
X149755527Y-99605937D01*
X149890956Y-99578999D01*
X150029044Y-99578999D01*
X150164473Y-99605937D01*
X150164473Y-99605937D01*
G37*
G36*
X134924473Y-99605937D02*
G01*
X135052049Y-99658781D01*
X135166859Y-99735494D01*
X135264505Y-99833140D01*
X135341218Y-99947950D01*
X135394062Y-100075526D01*
X135421000Y-100210955D01*
X135421000Y-100349043D01*
X135394062Y-100484472D01*
X135341218Y-100612048D01*
X135264505Y-100726858D01*
X135166859Y-100824504D01*
X135052049Y-100901217D01*
X134924473Y-100954061D01*
X134789044Y-100980999D01*
X134650956Y-100980999D01*
X134515527Y-100954061D01*
X134387951Y-100901217D01*
X134273141Y-100824504D01*
X134175495Y-100726858D01*
X134098782Y-100612048D01*
X134045938Y-100484472D01*
X134019000Y-100349043D01*
X134019000Y-100210955D01*
X134045938Y-100075526D01*
X134098782Y-99947950D01*
X134175495Y-99833140D01*
X134273141Y-99735494D01*
X134387951Y-99658781D01*
X134515527Y-99605937D01*
X134650956Y-99578999D01*
X134789044Y-99578999D01*
X134924473Y-99605937D01*
X134924473Y-99605937D01*
G37*
G36*
X132384473Y-99605937D02*
G01*
X132512049Y-99658781D01*
X132626859Y-99735494D01*
X132724505Y-99833140D01*
X132801218Y-99947950D01*
X132854062Y-100075526D01*
X132881000Y-100210955D01*
X132881000Y-100349043D01*
X132854062Y-100484472D01*
X132801218Y-100612048D01*
X132724505Y-100726858D01*
X132626859Y-100824504D01*
X132512049Y-100901217D01*
X132384473Y-100954061D01*
X132249044Y-100980999D01*
X132110956Y-100980999D01*
X131975527Y-100954061D01*
X131847951Y-100901217D01*
X131733141Y-100824504D01*
X131635495Y-100726858D01*
X131558782Y-100612048D01*
X131505938Y-100484472D01*
X131479000Y-100349043D01*
X131479000Y-100210955D01*
X131505938Y-100075526D01*
X131558782Y-99947950D01*
X131635495Y-99833140D01*
X131733141Y-99735494D01*
X131847951Y-99658781D01*
X131975527Y-99605937D01*
X132110956Y-99578999D01*
X132249044Y-99578999D01*
X132384473Y-99605937D01*
X132384473Y-99605937D01*
G37*
G36*
X129844473Y-99605937D02*
G01*
X129972049Y-99658781D01*
X130086859Y-99735494D01*
X130184505Y-99833140D01*
X130261218Y-99947950D01*
X130314062Y-100075526D01*
X130341000Y-100210955D01*
X130341000Y-100349043D01*
X130314062Y-100484472D01*
X130261218Y-100612048D01*
X130184505Y-100726858D01*
X130086859Y-100824504D01*
X129972049Y-100901217D01*
X129844473Y-100954061D01*
X129709044Y-100980999D01*
X129570956Y-100980999D01*
X129435527Y-100954061D01*
X129307951Y-100901217D01*
X129193141Y-100824504D01*
X129095495Y-100726858D01*
X129018782Y-100612048D01*
X128965938Y-100484472D01*
X128939000Y-100349043D01*
X128939000Y-100210955D01*
X128965938Y-100075526D01*
X129018782Y-99947950D01*
X129095495Y-99833140D01*
X129193141Y-99735494D01*
X129307951Y-99658781D01*
X129435527Y-99605937D01*
X129570956Y-99578999D01*
X129709044Y-99578999D01*
X129844473Y-99605937D01*
X129844473Y-99605937D01*
G37*
G36*
X127304473Y-99605937D02*
G01*
X127432049Y-99658781D01*
X127546859Y-99735494D01*
X127644505Y-99833140D01*
X127721218Y-99947950D01*
X127774062Y-100075526D01*
X127801000Y-100210955D01*
X127801000Y-100349043D01*
X127774062Y-100484472D01*
X127721218Y-100612048D01*
X127644505Y-100726858D01*
X127546859Y-100824504D01*
X127432049Y-100901217D01*
X127304473Y-100954061D01*
X127169044Y-100980999D01*
X127030956Y-100980999D01*
X126895527Y-100954061D01*
X126767951Y-100901217D01*
X126653141Y-100824504D01*
X126555495Y-100726858D01*
X126478782Y-100612048D01*
X126425938Y-100484472D01*
X126399000Y-100349043D01*
X126399000Y-100210955D01*
X126425938Y-100075526D01*
X126478782Y-99947950D01*
X126555495Y-99833140D01*
X126653141Y-99735494D01*
X126767951Y-99658781D01*
X126895527Y-99605937D01*
X127030956Y-99578999D01*
X127169044Y-99578999D01*
X127304473Y-99605937D01*
X127304473Y-99605937D01*
G37*
G36*
X137464473Y-99605937D02*
G01*
X137592049Y-99658781D01*
X137706859Y-99735494D01*
X137804505Y-99833140D01*
X137881218Y-99947950D01*
X137934062Y-100075526D01*
X137961000Y-100210955D01*
X137961000Y-100349043D01*
X137934062Y-100484472D01*
X137881218Y-100612048D01*
X137804505Y-100726858D01*
X137706859Y-100824504D01*
X137592049Y-100901217D01*
X137464473Y-100954061D01*
X137329044Y-100980999D01*
X137190956Y-100980999D01*
X137055527Y-100954061D01*
X136927951Y-100901217D01*
X136813141Y-100824504D01*
X136715495Y-100726858D01*
X136638782Y-100612048D01*
X136585938Y-100484472D01*
X136559000Y-100349043D01*
X136559000Y-100210955D01*
X136585938Y-100075526D01*
X136638782Y-99947950D01*
X136715495Y-99833140D01*
X136813141Y-99735494D01*
X136927951Y-99658781D01*
X137055527Y-99605937D01*
X137190956Y-99578999D01*
X137329044Y-99578999D01*
X137464473Y-99605937D01*
X137464473Y-99605937D01*
G37*
G36*
X150164473Y-97065937D02*
G01*
X150292049Y-97118781D01*
X150406859Y-97195494D01*
X150504505Y-97293140D01*
X150581218Y-97407950D01*
X150634062Y-97535526D01*
X150661000Y-97670955D01*
X150661000Y-97809043D01*
X150634062Y-97944472D01*
X150581218Y-98072048D01*
X150504505Y-98186858D01*
X150406859Y-98284504D01*
X150292049Y-98361217D01*
X150164473Y-98414061D01*
X150029044Y-98440999D01*
X149890956Y-98440999D01*
X149755527Y-98414061D01*
X149627951Y-98361217D01*
X149513141Y-98284504D01*
X149415495Y-98186858D01*
X149338782Y-98072048D01*
X149285938Y-97944472D01*
X149259000Y-97809043D01*
X149259000Y-97670955D01*
X149285938Y-97535526D01*
X149338782Y-97407950D01*
X149415495Y-97293140D01*
X149513141Y-97195494D01*
X149627951Y-97118781D01*
X149755527Y-97065937D01*
X149890956Y-97038999D01*
X150029044Y-97038999D01*
X150164473Y-97065937D01*
X150164473Y-97065937D01*
G37*
G36*
X124764473Y-97065937D02*
G01*
X124892049Y-97118781D01*
X125006859Y-97195494D01*
X125104505Y-97293140D01*
X125181218Y-97407950D01*
X125234062Y-97535526D01*
X125261000Y-97670955D01*
X125261000Y-97809043D01*
X125234062Y-97944472D01*
X125181218Y-98072048D01*
X125104505Y-98186858D01*
X125006859Y-98284504D01*
X124892049Y-98361217D01*
X124764473Y-98414061D01*
X124629044Y-98440999D01*
X124490956Y-98440999D01*
X124355527Y-98414061D01*
X124227951Y-98361217D01*
X124113141Y-98284504D01*
X124015495Y-98186858D01*
X123938782Y-98072048D01*
X123885938Y-97944472D01*
X123859000Y-97809043D01*
X123859000Y-97670955D01*
X123885938Y-97535526D01*
X123938782Y-97407950D01*
X124015495Y-97293140D01*
X124113141Y-97195494D01*
X124227951Y-97118781D01*
X124355527Y-97065937D01*
X124490956Y-97038999D01*
X124629044Y-97038999D01*
X124764473Y-97065937D01*
X124764473Y-97065937D01*
G37*
G36*
X129844473Y-97065937D02*
G01*
X129972049Y-97118781D01*
X130086859Y-97195494D01*
X130184505Y-97293140D01*
X130261218Y-97407950D01*
X130314062Y-97535526D01*
X130341000Y-97670955D01*
X130341000Y-97809043D01*
X130314062Y-97944472D01*
X130261218Y-98072048D01*
X130184505Y-98186858D01*
X130086859Y-98284504D01*
X129972049Y-98361217D01*
X129844473Y-98414061D01*
X129709044Y-98440999D01*
X129570956Y-98440999D01*
X129435527Y-98414061D01*
X129307951Y-98361217D01*
X129193141Y-98284504D01*
X129095495Y-98186858D01*
X129018782Y-98072048D01*
X128965938Y-97944472D01*
X128939000Y-97809043D01*
X128939000Y-97670955D01*
X128965938Y-97535526D01*
X129018782Y-97407950D01*
X129095495Y-97293140D01*
X129193141Y-97195494D01*
X129307951Y-97118781D01*
X129435527Y-97065937D01*
X129570956Y-97038999D01*
X129709044Y-97038999D01*
X129844473Y-97065937D01*
X129844473Y-97065937D01*
G37*
G36*
X132384473Y-97065937D02*
G01*
X132512049Y-97118781D01*
X132626859Y-97195494D01*
X132724505Y-97293140D01*
X132801218Y-97407950D01*
X132854062Y-97535526D01*
X132881000Y-97670955D01*
X132881000Y-97809043D01*
X132854062Y-97944472D01*
X132801218Y-98072048D01*
X132724505Y-98186858D01*
X132626859Y-98284504D01*
X132512049Y-98361217D01*
X132384473Y-98414061D01*
X132249044Y-98440999D01*
X132110956Y-98440999D01*
X131975527Y-98414061D01*
X131847951Y-98361217D01*
X131733141Y-98284504D01*
X131635495Y-98186858D01*
X131558782Y-98072048D01*
X131505938Y-97944472D01*
X131479000Y-97809043D01*
X131479000Y-97670955D01*
X131505938Y-97535526D01*
X131558782Y-97407950D01*
X131635495Y-97293140D01*
X131733141Y-97195494D01*
X131847951Y-97118781D01*
X131975527Y-97065937D01*
X132110956Y-97038999D01*
X132249044Y-97038999D01*
X132384473Y-97065937D01*
X132384473Y-97065937D01*
G37*
G36*
X134924473Y-97065937D02*
G01*
X135052049Y-97118781D01*
X135166859Y-97195494D01*
X135264505Y-97293140D01*
X135341218Y-97407950D01*
X135394062Y-97535526D01*
X135421000Y-97670955D01*
X135421000Y-97809043D01*
X135394062Y-97944472D01*
X135341218Y-98072048D01*
X135264505Y-98186858D01*
X135166859Y-98284504D01*
X135052049Y-98361217D01*
X134924473Y-98414061D01*
X134789044Y-98440999D01*
X134650956Y-98440999D01*
X134515527Y-98414061D01*
X134387951Y-98361217D01*
X134273141Y-98284504D01*
X134175495Y-98186858D01*
X134098782Y-98072048D01*
X134045938Y-97944472D01*
X134019000Y-97809043D01*
X134019000Y-97670955D01*
X134045938Y-97535526D01*
X134098782Y-97407950D01*
X134175495Y-97293140D01*
X134273141Y-97195494D01*
X134387951Y-97118781D01*
X134515527Y-97065937D01*
X134650956Y-97038999D01*
X134789044Y-97038999D01*
X134924473Y-97065937D01*
X134924473Y-97065937D01*
G37*
G36*
X137464473Y-97065937D02*
G01*
X137592049Y-97118781D01*
X137706859Y-97195494D01*
X137804505Y-97293140D01*
X137881218Y-97407950D01*
X137934062Y-97535526D01*
X137961000Y-97670955D01*
X137961000Y-97809043D01*
X137934062Y-97944472D01*
X137881218Y-98072048D01*
X137804505Y-98186858D01*
X137706859Y-98284504D01*
X137592049Y-98361217D01*
X137464473Y-98414061D01*
X137329044Y-98440999D01*
X137190956Y-98440999D01*
X137055527Y-98414061D01*
X136927951Y-98361217D01*
X136813141Y-98284504D01*
X136715495Y-98186858D01*
X136638782Y-98072048D01*
X136585938Y-97944472D01*
X136559000Y-97809043D01*
X136559000Y-97670955D01*
X136585938Y-97535526D01*
X136638782Y-97407950D01*
X136715495Y-97293140D01*
X136813141Y-97195494D01*
X136927951Y-97118781D01*
X137055527Y-97065937D01*
X137190956Y-97038999D01*
X137329044Y-97038999D01*
X137464473Y-97065937D01*
X137464473Y-97065937D01*
G37*
G36*
X140004473Y-97065937D02*
G01*
X140132049Y-97118781D01*
X140246859Y-97195494D01*
X140344505Y-97293140D01*
X140421218Y-97407950D01*
X140474062Y-97535526D01*
X140501000Y-97670955D01*
X140501000Y-97809043D01*
X140474062Y-97944472D01*
X140421218Y-98072048D01*
X140344505Y-98186858D01*
X140246859Y-98284504D01*
X140132049Y-98361217D01*
X140004473Y-98414061D01*
X139869044Y-98440999D01*
X139730956Y-98440999D01*
X139595527Y-98414061D01*
X139467951Y-98361217D01*
X139353141Y-98284504D01*
X139255495Y-98186858D01*
X139178782Y-98072048D01*
X139125938Y-97944472D01*
X139099000Y-97809043D01*
X139099000Y-97670955D01*
X139125938Y-97535526D01*
X139178782Y-97407950D01*
X139255495Y-97293140D01*
X139353141Y-97195494D01*
X139467951Y-97118781D01*
X139595527Y-97065937D01*
X139730956Y-97038999D01*
X139869044Y-97038999D01*
X140004473Y-97065937D01*
X140004473Y-97065937D01*
G37*
G36*
X145084473Y-97065937D02*
G01*
X145212049Y-97118781D01*
X145326859Y-97195494D01*
X145424505Y-97293140D01*
X145501218Y-97407950D01*
X145554062Y-97535526D01*
X145581000Y-97670955D01*
X145581000Y-97809043D01*
X145554062Y-97944472D01*
X145501218Y-98072048D01*
X145424505Y-98186858D01*
X145326859Y-98284504D01*
X145212049Y-98361217D01*
X145084473Y-98414061D01*
X144949044Y-98440999D01*
X144810956Y-98440999D01*
X144675527Y-98414061D01*
X144547951Y-98361217D01*
X144433141Y-98284504D01*
X144335495Y-98186858D01*
X144258782Y-98072048D01*
X144205938Y-97944472D01*
X144179000Y-97809043D01*
X144179000Y-97670955D01*
X144205938Y-97535526D01*
X144258782Y-97407950D01*
X144335495Y-97293140D01*
X144433141Y-97195494D01*
X144547951Y-97118781D01*
X144675527Y-97065937D01*
X144810956Y-97038999D01*
X144949044Y-97038999D01*
X145084473Y-97065937D01*
X145084473Y-97065937D01*
G37*
G36*
X147624473Y-97065937D02*
G01*
X147752049Y-97118781D01*
X147866859Y-97195494D01*
X147964505Y-97293140D01*
X148041218Y-97407950D01*
X148094062Y-97535526D01*
X148121000Y-97670955D01*
X148121000Y-97809043D01*
X148094062Y-97944472D01*
X148041218Y-98072048D01*
X147964505Y-98186858D01*
X147866859Y-98284504D01*
X147752049Y-98361217D01*
X147624473Y-98414061D01*
X147489044Y-98440999D01*
X147350956Y-98440999D01*
X147215527Y-98414061D01*
X147087951Y-98361217D01*
X146973141Y-98284504D01*
X146875495Y-98186858D01*
X146798782Y-98072048D01*
X146745938Y-97944472D01*
X146719000Y-97809043D01*
X146719000Y-97670955D01*
X146745938Y-97535526D01*
X146798782Y-97407950D01*
X146875495Y-97293140D01*
X146973141Y-97195494D01*
X147087951Y-97118781D01*
X147215527Y-97065937D01*
X147350956Y-97038999D01*
X147489044Y-97038999D01*
X147624473Y-97065937D01*
X147624473Y-97065937D01*
G37*
G36*
X152704473Y-97065937D02*
G01*
X152832049Y-97118781D01*
X152946859Y-97195494D01*
X153044505Y-97293140D01*
X153121218Y-97407950D01*
X153174062Y-97535526D01*
X153201000Y-97670955D01*
X153201000Y-97809043D01*
X153174062Y-97944472D01*
X153121218Y-98072048D01*
X153044505Y-98186858D01*
X152946859Y-98284504D01*
X152832049Y-98361217D01*
X152704473Y-98414061D01*
X152569044Y-98440999D01*
X152430956Y-98440999D01*
X152295527Y-98414061D01*
X152167951Y-98361217D01*
X152053141Y-98284504D01*
X151955495Y-98186858D01*
X151878782Y-98072048D01*
X151825938Y-97944472D01*
X151799000Y-97809043D01*
X151799000Y-97670955D01*
X151825938Y-97535526D01*
X151878782Y-97407950D01*
X151955495Y-97293140D01*
X152053141Y-97195494D01*
X152167951Y-97118781D01*
X152295527Y-97065937D01*
X152430956Y-97038999D01*
X152569044Y-97038999D01*
X152704473Y-97065937D01*
X152704473Y-97065937D01*
G37*
G36*
X127304473Y-97065937D02*
G01*
X127432049Y-97118781D01*
X127546859Y-97195494D01*
X127644505Y-97293140D01*
X127721218Y-97407950D01*
X127774062Y-97535526D01*
X127801000Y-97670955D01*
X127801000Y-97809043D01*
X127774062Y-97944472D01*
X127721218Y-98072048D01*
X127644505Y-98186858D01*
X127546859Y-98284504D01*
X127432049Y-98361217D01*
X127304473Y-98414061D01*
X127169044Y-98440999D01*
X127030956Y-98440999D01*
X126895527Y-98414061D01*
X126767951Y-98361217D01*
X126653141Y-98284504D01*
X126555495Y-98186858D01*
X126478782Y-98072048D01*
X126425938Y-97944472D01*
X126399000Y-97809043D01*
X126399000Y-97670955D01*
X126425938Y-97535526D01*
X126478782Y-97407950D01*
X126555495Y-97293140D01*
X126653141Y-97195494D01*
X126767951Y-97118781D01*
X126895527Y-97065937D01*
X127030956Y-97038999D01*
X127169044Y-97038999D01*
X127304473Y-97065937D01*
X127304473Y-97065937D01*
G37*
G36*
X155244473Y-97065937D02*
G01*
X155372049Y-97118781D01*
X155486859Y-97195494D01*
X155584505Y-97293140D01*
X155661218Y-97407950D01*
X155714062Y-97535526D01*
X155741000Y-97670955D01*
X155741000Y-97809043D01*
X155714062Y-97944472D01*
X155661218Y-98072048D01*
X155584505Y-98186858D01*
X155486859Y-98284504D01*
X155372049Y-98361217D01*
X155244473Y-98414061D01*
X155109044Y-98440999D01*
X154970956Y-98440999D01*
X154835527Y-98414061D01*
X154707951Y-98361217D01*
X154593141Y-98284504D01*
X154495495Y-98186858D01*
X154418782Y-98072048D01*
X154365938Y-97944472D01*
X154339000Y-97809043D01*
X154339000Y-97670955D01*
X154365938Y-97535526D01*
X154418782Y-97407950D01*
X154495495Y-97293140D01*
X154593141Y-97195494D01*
X154707951Y-97118781D01*
X154835527Y-97065937D01*
X154970956Y-97038999D01*
X155109044Y-97038999D01*
X155244473Y-97065937D01*
X155244473Y-97065937D01*
G37*
G36*
X142544473Y-97065937D02*
G01*
X142672049Y-97118781D01*
X142786859Y-97195494D01*
X142884505Y-97293140D01*
X142961218Y-97407950D01*
X143014062Y-97535526D01*
X143041000Y-97670955D01*
X143041000Y-97809043D01*
X143014062Y-97944472D01*
X142961218Y-98072048D01*
X142884505Y-98186858D01*
X142786859Y-98284504D01*
X142672049Y-98361217D01*
X142544473Y-98414061D01*
X142409044Y-98440999D01*
X142270956Y-98440999D01*
X142135527Y-98414061D01*
X142007951Y-98361217D01*
X141893141Y-98284504D01*
X141795495Y-98186858D01*
X141718782Y-98072048D01*
X141665938Y-97944472D01*
X141639000Y-97809043D01*
X141639000Y-97670955D01*
X141665938Y-97535526D01*
X141718782Y-97407950D01*
X141795495Y-97293140D01*
X141893141Y-97195494D01*
X142007951Y-97118781D01*
X142135527Y-97065937D01*
X142270956Y-97038999D01*
X142409044Y-97038999D01*
X142544473Y-97065937D01*
X142544473Y-97065937D01*
G37*
G36*
X127304473Y-94525937D02*
G01*
X127432049Y-94578781D01*
X127546859Y-94655494D01*
X127644505Y-94753140D01*
X127721218Y-94867950D01*
X127774062Y-94995526D01*
X127801000Y-95130955D01*
X127801000Y-95269043D01*
X127774062Y-95404472D01*
X127721218Y-95532048D01*
X127644505Y-95646858D01*
X127546859Y-95744504D01*
X127432049Y-95821217D01*
X127304473Y-95874061D01*
X127169044Y-95900999D01*
X127030956Y-95900999D01*
X126895527Y-95874061D01*
X126767951Y-95821217D01*
X126653141Y-95744504D01*
X126555495Y-95646858D01*
X126478782Y-95532048D01*
X126425938Y-95404472D01*
X126399000Y-95269043D01*
X126399000Y-95130955D01*
X126425938Y-94995526D01*
X126478782Y-94867950D01*
X126555495Y-94753140D01*
X126653141Y-94655494D01*
X126767951Y-94578781D01*
X126895527Y-94525937D01*
X127030956Y-94498999D01*
X127169044Y-94498999D01*
X127304473Y-94525937D01*
X127304473Y-94525937D01*
G37*
G36*
X155244473Y-94525937D02*
G01*
X155372049Y-94578781D01*
X155486859Y-94655494D01*
X155584505Y-94753140D01*
X155661218Y-94867950D01*
X155714062Y-94995526D01*
X155741000Y-95130955D01*
X155741000Y-95269043D01*
X155714062Y-95404472D01*
X155661218Y-95532048D01*
X155584505Y-95646858D01*
X155486859Y-95744504D01*
X155372049Y-95821217D01*
X155244473Y-95874061D01*
X155109044Y-95900999D01*
X154970956Y-95900999D01*
X154835527Y-95874061D01*
X154707951Y-95821217D01*
X154593141Y-95744504D01*
X154495495Y-95646858D01*
X154418782Y-95532048D01*
X154365938Y-95404472D01*
X154339000Y-95269043D01*
X154339000Y-95130955D01*
X154365938Y-94995526D01*
X154418782Y-94867950D01*
X154495495Y-94753140D01*
X154593141Y-94655494D01*
X154707951Y-94578781D01*
X154835527Y-94525937D01*
X154970956Y-94498999D01*
X155109044Y-94498999D01*
X155244473Y-94525937D01*
X155244473Y-94525937D01*
G37*
G36*
X152704473Y-94525937D02*
G01*
X152832049Y-94578781D01*
X152946859Y-94655494D01*
X153044505Y-94753140D01*
X153121218Y-94867950D01*
X153174062Y-94995526D01*
X153201000Y-95130955D01*
X153201000Y-95269043D01*
X153174062Y-95404472D01*
X153121218Y-95532048D01*
X153044505Y-95646858D01*
X152946859Y-95744504D01*
X152832049Y-95821217D01*
X152704473Y-95874061D01*
X152569044Y-95900999D01*
X152430956Y-95900999D01*
X152295527Y-95874061D01*
X152167951Y-95821217D01*
X152053141Y-95744504D01*
X151955495Y-95646858D01*
X151878782Y-95532048D01*
X151825938Y-95404472D01*
X151799000Y-95269043D01*
X151799000Y-95130955D01*
X151825938Y-94995526D01*
X151878782Y-94867950D01*
X151955495Y-94753140D01*
X152053141Y-94655494D01*
X152167951Y-94578781D01*
X152295527Y-94525937D01*
X152430956Y-94498999D01*
X152569044Y-94498999D01*
X152704473Y-94525937D01*
X152704473Y-94525937D01*
G37*
G36*
X124764473Y-94525937D02*
G01*
X124892049Y-94578781D01*
X125006859Y-94655494D01*
X125104505Y-94753140D01*
X125181218Y-94867950D01*
X125234062Y-94995526D01*
X125261000Y-95130955D01*
X125261000Y-95269043D01*
X125234062Y-95404472D01*
X125181218Y-95532048D01*
X125104505Y-95646858D01*
X125006859Y-95744504D01*
X124892049Y-95821217D01*
X124764473Y-95874061D01*
X124629044Y-95900999D01*
X124490956Y-95900999D01*
X124355527Y-95874061D01*
X124227951Y-95821217D01*
X124113141Y-95744504D01*
X124015495Y-95646858D01*
X123938782Y-95532048D01*
X123885938Y-95404472D01*
X123859000Y-95269043D01*
X123859000Y-95130955D01*
X123885938Y-94995526D01*
X123938782Y-94867950D01*
X124015495Y-94753140D01*
X124113141Y-94655494D01*
X124227951Y-94578781D01*
X124355527Y-94525937D01*
X124490956Y-94498999D01*
X124629044Y-94498999D01*
X124764473Y-94525937D01*
X124764473Y-94525937D01*
G37*
G36*
X127304473Y-91985937D02*
G01*
X127432049Y-92038781D01*
X127546859Y-92115494D01*
X127644505Y-92213140D01*
X127721218Y-92327950D01*
X127774062Y-92455526D01*
X127801000Y-92590955D01*
X127801000Y-92729043D01*
X127774062Y-92864472D01*
X127721218Y-92992048D01*
X127644505Y-93106858D01*
X127546859Y-93204504D01*
X127432049Y-93281217D01*
X127304473Y-93334061D01*
X127169044Y-93360999D01*
X127030956Y-93360999D01*
X126895527Y-93334061D01*
X126767951Y-93281217D01*
X126653141Y-93204504D01*
X126555495Y-93106858D01*
X126478782Y-92992048D01*
X126425938Y-92864472D01*
X126399000Y-92729043D01*
X126399000Y-92590955D01*
X126425938Y-92455526D01*
X126478782Y-92327950D01*
X126555495Y-92213140D01*
X126653141Y-92115494D01*
X126767951Y-92038781D01*
X126895527Y-91985937D01*
X127030956Y-91958999D01*
X127169044Y-91958999D01*
X127304473Y-91985937D01*
X127304473Y-91985937D01*
G37*
G36*
X155244473Y-91985937D02*
G01*
X155372049Y-92038781D01*
X155486859Y-92115494D01*
X155584505Y-92213140D01*
X155661218Y-92327950D01*
X155714062Y-92455526D01*
X155741000Y-92590955D01*
X155741000Y-92729043D01*
X155714062Y-92864472D01*
X155661218Y-92992048D01*
X155584505Y-93106858D01*
X155486859Y-93204504D01*
X155372049Y-93281217D01*
X155244473Y-93334061D01*
X155109044Y-93360999D01*
X154970956Y-93360999D01*
X154835527Y-93334061D01*
X154707951Y-93281217D01*
X154593141Y-93204504D01*
X154495495Y-93106858D01*
X154418782Y-92992048D01*
X154365938Y-92864472D01*
X154339000Y-92729043D01*
X154339000Y-92590955D01*
X154365938Y-92455526D01*
X154418782Y-92327950D01*
X154495495Y-92213140D01*
X154593141Y-92115494D01*
X154707951Y-92038781D01*
X154835527Y-91985937D01*
X154970956Y-91958999D01*
X155109044Y-91958999D01*
X155244473Y-91985937D01*
X155244473Y-91985937D01*
G37*
G36*
X124764473Y-91985937D02*
G01*
X124892049Y-92038781D01*
X125006859Y-92115494D01*
X125104505Y-92213140D01*
X125181218Y-92327950D01*
X125234062Y-92455526D01*
X125261000Y-92590955D01*
X125261000Y-92729043D01*
X125234062Y-92864472D01*
X125181218Y-92992048D01*
X125104505Y-93106858D01*
X125006859Y-93204504D01*
X124892049Y-93281217D01*
X124764473Y-93334061D01*
X124629044Y-93360999D01*
X124490956Y-93360999D01*
X124355527Y-93334061D01*
X124227951Y-93281217D01*
X124113141Y-93204504D01*
X124015495Y-93106858D01*
X123938782Y-92992048D01*
X123885938Y-92864472D01*
X123859000Y-92729043D01*
X123859000Y-92590955D01*
X123885938Y-92455526D01*
X123938782Y-92327950D01*
X124015495Y-92213140D01*
X124113141Y-92115494D01*
X124227951Y-92038781D01*
X124355527Y-91985937D01*
X124490956Y-91958999D01*
X124629044Y-91958999D01*
X124764473Y-91985937D01*
X124764473Y-91985937D01*
G37*
G36*
X152704473Y-91985937D02*
G01*
X152832049Y-92038781D01*
X152946859Y-92115494D01*
X153044505Y-92213140D01*
X153121218Y-92327950D01*
X153174062Y-92455526D01*
X153201000Y-92590955D01*
X153201000Y-92729043D01*
X153174062Y-92864472D01*
X153121218Y-92992048D01*
X153044505Y-93106858D01*
X152946859Y-93204504D01*
X152832049Y-93281217D01*
X152704473Y-93334061D01*
X152569044Y-93360999D01*
X152430956Y-93360999D01*
X152295527Y-93334061D01*
X152167951Y-93281217D01*
X152053141Y-93204504D01*
X151955495Y-93106858D01*
X151878782Y-92992048D01*
X151825938Y-92864472D01*
X151799000Y-92729043D01*
X151799000Y-92590955D01*
X151825938Y-92455526D01*
X151878782Y-92327950D01*
X151955495Y-92213140D01*
X152053141Y-92115494D01*
X152167951Y-92038781D01*
X152295527Y-91985937D01*
X152430956Y-91958999D01*
X152569044Y-91958999D01*
X152704473Y-91985937D01*
X152704473Y-91985937D01*
G37*
G36*
X124764473Y-89445937D02*
G01*
X124892049Y-89498781D01*
X125006859Y-89575494D01*
X125104505Y-89673140D01*
X125181218Y-89787950D01*
X125234062Y-89915526D01*
X125261000Y-90050955D01*
X125261000Y-90189043D01*
X125234062Y-90324472D01*
X125181218Y-90452048D01*
X125104505Y-90566858D01*
X125006859Y-90664504D01*
X124892049Y-90741217D01*
X124764473Y-90794061D01*
X124629044Y-90820999D01*
X124490956Y-90820999D01*
X124355527Y-90794061D01*
X124227951Y-90741217D01*
X124113141Y-90664504D01*
X124015495Y-90566858D01*
X123938782Y-90452048D01*
X123885938Y-90324472D01*
X123859000Y-90189043D01*
X123859000Y-90050955D01*
X123885938Y-89915526D01*
X123938782Y-89787950D01*
X124015495Y-89673140D01*
X124113141Y-89575494D01*
X124227951Y-89498781D01*
X124355527Y-89445937D01*
X124490956Y-89418999D01*
X124629044Y-89418999D01*
X124764473Y-89445937D01*
X124764473Y-89445937D01*
G37*
G36*
X152704473Y-89445937D02*
G01*
X152832049Y-89498781D01*
X152946859Y-89575494D01*
X153044505Y-89673140D01*
X153121218Y-89787950D01*
X153174062Y-89915526D01*
X153201000Y-90050955D01*
X153201000Y-90189043D01*
X153174062Y-90324472D01*
X153121218Y-90452048D01*
X153044505Y-90566858D01*
X152946859Y-90664504D01*
X152832049Y-90741217D01*
X152704473Y-90794061D01*
X152569044Y-90820999D01*
X152430956Y-90820999D01*
X152295527Y-90794061D01*
X152167951Y-90741217D01*
X152053141Y-90664504D01*
X151955495Y-90566858D01*
X151878782Y-90452048D01*
X151825938Y-90324472D01*
X151799000Y-90189043D01*
X151799000Y-90050955D01*
X151825938Y-89915526D01*
X151878782Y-89787950D01*
X151955495Y-89673140D01*
X152053141Y-89575494D01*
X152167951Y-89498781D01*
X152295527Y-89445937D01*
X152430956Y-89418999D01*
X152569044Y-89418999D01*
X152704473Y-89445937D01*
X152704473Y-89445937D01*
G37*
G36*
X127304473Y-89445937D02*
G01*
X127432049Y-89498781D01*
X127546859Y-89575494D01*
X127644505Y-89673140D01*
X127721218Y-89787950D01*
X127774062Y-89915526D01*
X127801000Y-90050955D01*
X127801000Y-90189043D01*
X127774062Y-90324472D01*
X127721218Y-90452048D01*
X127644505Y-90566858D01*
X127546859Y-90664504D01*
X127432049Y-90741217D01*
X127304473Y-90794061D01*
X127169044Y-90820999D01*
X127030956Y-90820999D01*
X126895527Y-90794061D01*
X126767951Y-90741217D01*
X126653141Y-90664504D01*
X126555495Y-90566858D01*
X126478782Y-90452048D01*
X126425938Y-90324472D01*
X126399000Y-90189043D01*
X126399000Y-90050955D01*
X126425938Y-89915526D01*
X126478782Y-89787950D01*
X126555495Y-89673140D01*
X126653141Y-89575494D01*
X126767951Y-89498781D01*
X126895527Y-89445937D01*
X127030956Y-89418999D01*
X127169044Y-89418999D01*
X127304473Y-89445937D01*
X127304473Y-89445937D01*
G37*
G36*
X155244473Y-89445937D02*
G01*
X155372049Y-89498781D01*
X155486859Y-89575494D01*
X155584505Y-89673140D01*
X155661218Y-89787950D01*
X155714062Y-89915526D01*
X155741000Y-90050955D01*
X155741000Y-90189043D01*
X155714062Y-90324472D01*
X155661218Y-90452048D01*
X155584505Y-90566858D01*
X155486859Y-90664504D01*
X155372049Y-90741217D01*
X155244473Y-90794061D01*
X155109044Y-90820999D01*
X154970956Y-90820999D01*
X154835527Y-90794061D01*
X154707951Y-90741217D01*
X154593141Y-90664504D01*
X154495495Y-90566858D01*
X154418782Y-90452048D01*
X154365938Y-90324472D01*
X154339000Y-90189043D01*
X154339000Y-90050955D01*
X154365938Y-89915526D01*
X154418782Y-89787950D01*
X154495495Y-89673140D01*
X154593141Y-89575494D01*
X154707951Y-89498781D01*
X154835527Y-89445937D01*
X154970956Y-89418999D01*
X155109044Y-89418999D01*
X155244473Y-89445937D01*
X155244473Y-89445937D01*
G37*
G36*
X124764473Y-86905937D02*
G01*
X124892049Y-86958781D01*
X125006859Y-87035494D01*
X125104505Y-87133140D01*
X125181218Y-87247950D01*
X125234062Y-87375526D01*
X125261000Y-87510955D01*
X125261000Y-87649043D01*
X125234062Y-87784472D01*
X125181218Y-87912048D01*
X125104505Y-88026858D01*
X125006859Y-88124504D01*
X124892049Y-88201217D01*
X124764473Y-88254061D01*
X124629044Y-88280999D01*
X124490956Y-88280999D01*
X124355527Y-88254061D01*
X124227951Y-88201217D01*
X124113141Y-88124504D01*
X124015495Y-88026858D01*
X123938782Y-87912048D01*
X123885938Y-87784472D01*
X123859000Y-87649043D01*
X123859000Y-87510955D01*
X123885938Y-87375526D01*
X123938782Y-87247950D01*
X124015495Y-87133140D01*
X124113141Y-87035494D01*
X124227951Y-86958781D01*
X124355527Y-86905937D01*
X124490956Y-86878999D01*
X124629044Y-86878999D01*
X124764473Y-86905937D01*
X124764473Y-86905937D01*
G37*
G36*
X127304473Y-86905937D02*
G01*
X127432049Y-86958781D01*
X127546859Y-87035494D01*
X127644505Y-87133140D01*
X127721218Y-87247950D01*
X127774062Y-87375526D01*
X127801000Y-87510955D01*
X127801000Y-87649043D01*
X127774062Y-87784472D01*
X127721218Y-87912048D01*
X127644505Y-88026858D01*
X127546859Y-88124504D01*
X127432049Y-88201217D01*
X127304473Y-88254061D01*
X127169044Y-88280999D01*
X127030956Y-88280999D01*
X126895527Y-88254061D01*
X126767951Y-88201217D01*
X126653141Y-88124504D01*
X126555495Y-88026858D01*
X126478782Y-87912048D01*
X126425938Y-87784472D01*
X126399000Y-87649043D01*
X126399000Y-87510955D01*
X126425938Y-87375526D01*
X126478782Y-87247950D01*
X126555495Y-87133140D01*
X126653141Y-87035494D01*
X126767951Y-86958781D01*
X126895527Y-86905937D01*
X127030956Y-86878999D01*
X127169044Y-86878999D01*
X127304473Y-86905937D01*
X127304473Y-86905937D01*
G37*
G36*
X152704473Y-86905937D02*
G01*
X152832049Y-86958781D01*
X152946859Y-87035494D01*
X153044505Y-87133140D01*
X153121218Y-87247950D01*
X153174062Y-87375526D01*
X153201000Y-87510955D01*
X153201000Y-87649043D01*
X153174062Y-87784472D01*
X153121218Y-87912048D01*
X153044505Y-88026858D01*
X152946859Y-88124504D01*
X152832049Y-88201217D01*
X152704473Y-88254061D01*
X152569044Y-88280999D01*
X152430956Y-88280999D01*
X152295527Y-88254061D01*
X152167951Y-88201217D01*
X152053141Y-88124504D01*
X151955495Y-88026858D01*
X151878782Y-87912048D01*
X151825938Y-87784472D01*
X151799000Y-87649043D01*
X151799000Y-87510955D01*
X151825938Y-87375526D01*
X151878782Y-87247950D01*
X151955495Y-87133140D01*
X152053141Y-87035494D01*
X152167951Y-86958781D01*
X152295527Y-86905937D01*
X152430956Y-86878999D01*
X152569044Y-86878999D01*
X152704473Y-86905937D01*
X152704473Y-86905937D01*
G37*
G36*
X155244473Y-86905937D02*
G01*
X155372049Y-86958781D01*
X155486859Y-87035494D01*
X155584505Y-87133140D01*
X155661218Y-87247950D01*
X155714062Y-87375526D01*
X155741000Y-87510955D01*
X155741000Y-87649043D01*
X155714062Y-87784472D01*
X155661218Y-87912048D01*
X155584505Y-88026858D01*
X155486859Y-88124504D01*
X155372049Y-88201217D01*
X155244473Y-88254061D01*
X155109044Y-88280999D01*
X154970956Y-88280999D01*
X154835527Y-88254061D01*
X154707951Y-88201217D01*
X154593141Y-88124504D01*
X154495495Y-88026858D01*
X154418782Y-87912048D01*
X154365938Y-87784472D01*
X154339000Y-87649043D01*
X154339000Y-87510955D01*
X154365938Y-87375526D01*
X154418782Y-87247950D01*
X154495495Y-87133140D01*
X154593141Y-87035494D01*
X154707951Y-86958781D01*
X154835527Y-86905937D01*
X154970956Y-86878999D01*
X155109044Y-86878999D01*
X155244473Y-86905937D01*
X155244473Y-86905937D01*
G37*
G36*
X124764473Y-84365937D02*
G01*
X124892049Y-84418781D01*
X125006859Y-84495494D01*
X125104505Y-84593140D01*
X125181218Y-84707950D01*
X125234062Y-84835526D01*
X125261000Y-84970955D01*
X125261000Y-85109043D01*
X125234062Y-85244472D01*
X125181218Y-85372048D01*
X125104505Y-85486858D01*
X125006859Y-85584504D01*
X124892049Y-85661217D01*
X124764473Y-85714061D01*
X124629044Y-85740999D01*
X124490956Y-85740999D01*
X124355527Y-85714061D01*
X124227951Y-85661217D01*
X124113141Y-85584504D01*
X124015495Y-85486858D01*
X123938782Y-85372048D01*
X123885938Y-85244472D01*
X123859000Y-85109043D01*
X123859000Y-84970955D01*
X123885938Y-84835526D01*
X123938782Y-84707950D01*
X124015495Y-84593140D01*
X124113141Y-84495494D01*
X124227951Y-84418781D01*
X124355527Y-84365937D01*
X124490956Y-84338999D01*
X124629044Y-84338999D01*
X124764473Y-84365937D01*
X124764473Y-84365937D01*
G37*
G36*
X127304473Y-84365937D02*
G01*
X127432049Y-84418781D01*
X127546859Y-84495494D01*
X127644505Y-84593140D01*
X127721218Y-84707950D01*
X127774062Y-84835526D01*
X127801000Y-84970955D01*
X127801000Y-85109043D01*
X127774062Y-85244472D01*
X127721218Y-85372048D01*
X127644505Y-85486858D01*
X127546859Y-85584504D01*
X127432049Y-85661217D01*
X127304473Y-85714061D01*
X127169044Y-85740999D01*
X127030956Y-85740999D01*
X126895527Y-85714061D01*
X126767951Y-85661217D01*
X126653141Y-85584504D01*
X126555495Y-85486858D01*
X126478782Y-85372048D01*
X126425938Y-85244472D01*
X126399000Y-85109043D01*
X126399000Y-84970955D01*
X126425938Y-84835526D01*
X126478782Y-84707950D01*
X126555495Y-84593140D01*
X126653141Y-84495494D01*
X126767951Y-84418781D01*
X126895527Y-84365937D01*
X127030956Y-84338999D01*
X127169044Y-84338999D01*
X127304473Y-84365937D01*
X127304473Y-84365937D01*
G37*
G36*
X155244473Y-84365937D02*
G01*
X155372049Y-84418781D01*
X155486859Y-84495494D01*
X155584505Y-84593140D01*
X155661218Y-84707950D01*
X155714062Y-84835526D01*
X155741000Y-84970955D01*
X155741000Y-85109043D01*
X155714062Y-85244472D01*
X155661218Y-85372048D01*
X155584505Y-85486858D01*
X155486859Y-85584504D01*
X155372049Y-85661217D01*
X155244473Y-85714061D01*
X155109044Y-85740999D01*
X154970956Y-85740999D01*
X154835527Y-85714061D01*
X154707951Y-85661217D01*
X154593141Y-85584504D01*
X154495495Y-85486858D01*
X154418782Y-85372048D01*
X154365938Y-85244472D01*
X154339000Y-85109043D01*
X154339000Y-84970955D01*
X154365938Y-84835526D01*
X154418782Y-84707950D01*
X154495495Y-84593140D01*
X154593141Y-84495494D01*
X154707951Y-84418781D01*
X154835527Y-84365937D01*
X154970956Y-84338999D01*
X155109044Y-84338999D01*
X155244473Y-84365937D01*
X155244473Y-84365937D01*
G37*
G36*
X152704473Y-84365937D02*
G01*
X152832049Y-84418781D01*
X152946859Y-84495494D01*
X153044505Y-84593140D01*
X153121218Y-84707950D01*
X153174062Y-84835526D01*
X153201000Y-84970955D01*
X153201000Y-85109043D01*
X153174062Y-85244472D01*
X153121218Y-85372048D01*
X153044505Y-85486858D01*
X152946859Y-85584504D01*
X152832049Y-85661217D01*
X152704473Y-85714061D01*
X152569044Y-85740999D01*
X152430956Y-85740999D01*
X152295527Y-85714061D01*
X152167951Y-85661217D01*
X152053141Y-85584504D01*
X151955495Y-85486858D01*
X151878782Y-85372048D01*
X151825938Y-85244472D01*
X151799000Y-85109043D01*
X151799000Y-84970955D01*
X151825938Y-84835526D01*
X151878782Y-84707950D01*
X151955495Y-84593140D01*
X152053141Y-84495494D01*
X152167951Y-84418781D01*
X152295527Y-84365937D01*
X152430956Y-84338999D01*
X152569044Y-84338999D01*
X152704473Y-84365937D01*
X152704473Y-84365937D01*
G37*
G36*
X152704473Y-81825937D02*
G01*
X152832049Y-81878781D01*
X152946859Y-81955494D01*
X153044505Y-82053140D01*
X153121218Y-82167950D01*
X153174062Y-82295526D01*
X153201000Y-82430955D01*
X153201000Y-82569043D01*
X153174062Y-82704472D01*
X153121218Y-82832048D01*
X153044505Y-82946858D01*
X152946859Y-83044504D01*
X152832049Y-83121217D01*
X152704473Y-83174061D01*
X152569044Y-83200999D01*
X152430956Y-83200999D01*
X152295527Y-83174061D01*
X152167951Y-83121217D01*
X152053141Y-83044504D01*
X151955495Y-82946858D01*
X151878782Y-82832048D01*
X151825938Y-82704472D01*
X151799000Y-82569043D01*
X151799000Y-82430955D01*
X151825938Y-82295526D01*
X151878782Y-82167950D01*
X151955495Y-82053140D01*
X152053141Y-81955494D01*
X152167951Y-81878781D01*
X152295527Y-81825937D01*
X152430956Y-81798999D01*
X152569044Y-81798999D01*
X152704473Y-81825937D01*
X152704473Y-81825937D01*
G37*
G36*
X127304473Y-81825937D02*
G01*
X127432049Y-81878781D01*
X127546859Y-81955494D01*
X127644505Y-82053140D01*
X127721218Y-82167950D01*
X127774062Y-82295526D01*
X127801000Y-82430955D01*
X127801000Y-82569043D01*
X127774062Y-82704472D01*
X127721218Y-82832048D01*
X127644505Y-82946858D01*
X127546859Y-83044504D01*
X127432049Y-83121217D01*
X127304473Y-83174061D01*
X127169044Y-83200999D01*
X127030956Y-83200999D01*
X126895527Y-83174061D01*
X126767951Y-83121217D01*
X126653141Y-83044504D01*
X126555495Y-82946858D01*
X126478782Y-82832048D01*
X126425938Y-82704472D01*
X126399000Y-82569043D01*
X126399000Y-82430955D01*
X126425938Y-82295526D01*
X126478782Y-82167950D01*
X126555495Y-82053140D01*
X126653141Y-81955494D01*
X126767951Y-81878781D01*
X126895527Y-81825937D01*
X127030956Y-81798999D01*
X127169044Y-81798999D01*
X127304473Y-81825937D01*
X127304473Y-81825937D01*
G37*
G36*
X124764473Y-81825937D02*
G01*
X124892049Y-81878781D01*
X125006859Y-81955494D01*
X125104505Y-82053140D01*
X125181218Y-82167950D01*
X125234062Y-82295526D01*
X125261000Y-82430955D01*
X125261000Y-82569043D01*
X125234062Y-82704472D01*
X125181218Y-82832048D01*
X125104505Y-82946858D01*
X125006859Y-83044504D01*
X124892049Y-83121217D01*
X124764473Y-83174061D01*
X124629044Y-83200999D01*
X124490956Y-83200999D01*
X124355527Y-83174061D01*
X124227951Y-83121217D01*
X124113141Y-83044504D01*
X124015495Y-82946858D01*
X123938782Y-82832048D01*
X123885938Y-82704472D01*
X123859000Y-82569043D01*
X123859000Y-82430955D01*
X123885938Y-82295526D01*
X123938782Y-82167950D01*
X124015495Y-82053140D01*
X124113141Y-81955494D01*
X124227951Y-81878781D01*
X124355527Y-81825937D01*
X124490956Y-81798999D01*
X124629044Y-81798999D01*
X124764473Y-81825937D01*
X124764473Y-81825937D01*
G37*
G36*
X155244473Y-81825937D02*
G01*
X155372049Y-81878781D01*
X155486859Y-81955494D01*
X155584505Y-82053140D01*
X155661218Y-82167950D01*
X155714062Y-82295526D01*
X155741000Y-82430955D01*
X155741000Y-82569043D01*
X155714062Y-82704472D01*
X155661218Y-82832048D01*
X155584505Y-82946858D01*
X155486859Y-83044504D01*
X155372049Y-83121217D01*
X155244473Y-83174061D01*
X155109044Y-83200999D01*
X154970956Y-83200999D01*
X154835527Y-83174061D01*
X154707951Y-83121217D01*
X154593141Y-83044504D01*
X154495495Y-82946858D01*
X154418782Y-82832048D01*
X154365938Y-82704472D01*
X154339000Y-82569043D01*
X154339000Y-82430955D01*
X154365938Y-82295526D01*
X154418782Y-82167950D01*
X154495495Y-82053140D01*
X154593141Y-81955494D01*
X154707951Y-81878781D01*
X154835527Y-81825937D01*
X154970956Y-81798999D01*
X155109044Y-81798999D01*
X155244473Y-81825937D01*
X155244473Y-81825937D01*
G37*
G36*
X155244473Y-79285937D02*
G01*
X155372049Y-79338781D01*
X155486859Y-79415494D01*
X155584505Y-79513140D01*
X155661218Y-79627950D01*
X155714062Y-79755526D01*
X155741000Y-79890955D01*
X155741000Y-80029043D01*
X155714062Y-80164472D01*
X155661218Y-80292048D01*
X155584505Y-80406858D01*
X155486859Y-80504504D01*
X155372049Y-80581217D01*
X155244473Y-80634061D01*
X155109044Y-80660999D01*
X154970956Y-80660999D01*
X154835527Y-80634061D01*
X154707951Y-80581217D01*
X154593141Y-80504504D01*
X154495495Y-80406858D01*
X154418782Y-80292048D01*
X154365938Y-80164472D01*
X154339000Y-80029043D01*
X154339000Y-79890955D01*
X154365938Y-79755526D01*
X154418782Y-79627950D01*
X154495495Y-79513140D01*
X154593141Y-79415494D01*
X154707951Y-79338781D01*
X154835527Y-79285937D01*
X154970956Y-79258999D01*
X155109044Y-79258999D01*
X155244473Y-79285937D01*
X155244473Y-79285937D01*
G37*
G36*
X152704473Y-79285937D02*
G01*
X152832049Y-79338781D01*
X152946859Y-79415494D01*
X153044505Y-79513140D01*
X153121218Y-79627950D01*
X153174062Y-79755526D01*
X153201000Y-79890955D01*
X153201000Y-80029043D01*
X153174062Y-80164472D01*
X153121218Y-80292048D01*
X153044505Y-80406858D01*
X152946859Y-80504504D01*
X152832049Y-80581217D01*
X152704473Y-80634061D01*
X152569044Y-80660999D01*
X152430956Y-80660999D01*
X152295527Y-80634061D01*
X152167951Y-80581217D01*
X152053141Y-80504504D01*
X151955495Y-80406858D01*
X151878782Y-80292048D01*
X151825938Y-80164472D01*
X151799000Y-80029043D01*
X151799000Y-79890955D01*
X151825938Y-79755526D01*
X151878782Y-79627950D01*
X151955495Y-79513140D01*
X152053141Y-79415494D01*
X152167951Y-79338781D01*
X152295527Y-79285937D01*
X152430956Y-79258999D01*
X152569044Y-79258999D01*
X152704473Y-79285937D01*
X152704473Y-79285937D01*
G37*
G36*
X124764473Y-79285937D02*
G01*
X124892049Y-79338781D01*
X125006859Y-79415494D01*
X125104505Y-79513140D01*
X125181218Y-79627950D01*
X125234062Y-79755526D01*
X125261000Y-79890955D01*
X125261000Y-80029043D01*
X125234062Y-80164472D01*
X125181218Y-80292048D01*
X125104505Y-80406858D01*
X125006859Y-80504504D01*
X124892049Y-80581217D01*
X124764473Y-80634061D01*
X124629044Y-80660999D01*
X124490956Y-80660999D01*
X124355527Y-80634061D01*
X124227951Y-80581217D01*
X124113141Y-80504504D01*
X124015495Y-80406858D01*
X123938782Y-80292048D01*
X123885938Y-80164472D01*
X123859000Y-80029043D01*
X123859000Y-79890955D01*
X123885938Y-79755526D01*
X123938782Y-79627950D01*
X124015495Y-79513140D01*
X124113141Y-79415494D01*
X124227951Y-79338781D01*
X124355527Y-79285937D01*
X124490956Y-79258999D01*
X124629044Y-79258999D01*
X124764473Y-79285937D01*
X124764473Y-79285937D01*
G37*
G36*
X127304473Y-79285937D02*
G01*
X127432049Y-79338781D01*
X127546859Y-79415494D01*
X127644505Y-79513140D01*
X127721218Y-79627950D01*
X127774062Y-79755526D01*
X127801000Y-79890955D01*
X127801000Y-80029043D01*
X127774062Y-80164472D01*
X127721218Y-80292048D01*
X127644505Y-80406858D01*
X127546859Y-80504504D01*
X127432049Y-80581217D01*
X127304473Y-80634061D01*
X127169044Y-80660999D01*
X127030956Y-80660999D01*
X126895527Y-80634061D01*
X126767951Y-80581217D01*
X126653141Y-80504504D01*
X126555495Y-80406858D01*
X126478782Y-80292048D01*
X126425938Y-80164472D01*
X126399000Y-80029043D01*
X126399000Y-79890955D01*
X126425938Y-79755526D01*
X126478782Y-79627950D01*
X126555495Y-79513140D01*
X126653141Y-79415494D01*
X126767951Y-79338781D01*
X126895527Y-79285937D01*
X127030956Y-79258999D01*
X127169044Y-79258999D01*
X127304473Y-79285937D01*
X127304473Y-79285937D01*
G37*
G36*
X155244473Y-76745937D02*
G01*
X155372049Y-76798781D01*
X155486859Y-76875494D01*
X155584505Y-76973140D01*
X155661218Y-77087950D01*
X155714062Y-77215526D01*
X155741000Y-77350955D01*
X155741000Y-77489043D01*
X155714062Y-77624472D01*
X155661218Y-77752048D01*
X155584505Y-77866858D01*
X155486859Y-77964504D01*
X155372049Y-78041217D01*
X155244473Y-78094061D01*
X155109044Y-78120999D01*
X154970956Y-78120999D01*
X154835527Y-78094061D01*
X154707951Y-78041217D01*
X154593141Y-77964504D01*
X154495495Y-77866858D01*
X154418782Y-77752048D01*
X154365938Y-77624472D01*
X154339000Y-77489043D01*
X154339000Y-77350955D01*
X154365938Y-77215526D01*
X154418782Y-77087950D01*
X154495495Y-76973140D01*
X154593141Y-76875494D01*
X154707951Y-76798781D01*
X154835527Y-76745937D01*
X154970956Y-76718999D01*
X155109044Y-76718999D01*
X155244473Y-76745937D01*
X155244473Y-76745937D01*
G37*
G36*
X127304473Y-76745937D02*
G01*
X127432049Y-76798781D01*
X127546859Y-76875494D01*
X127644505Y-76973140D01*
X127721218Y-77087950D01*
X127774062Y-77215526D01*
X127801000Y-77350955D01*
X127801000Y-77489043D01*
X127774062Y-77624472D01*
X127721218Y-77752048D01*
X127644505Y-77866858D01*
X127546859Y-77964504D01*
X127432049Y-78041217D01*
X127304473Y-78094061D01*
X127169044Y-78120999D01*
X127030956Y-78120999D01*
X126895527Y-78094061D01*
X126767951Y-78041217D01*
X126653141Y-77964504D01*
X126555495Y-77866858D01*
X126478782Y-77752048D01*
X126425938Y-77624472D01*
X126399000Y-77489043D01*
X126399000Y-77350955D01*
X126425938Y-77215526D01*
X126478782Y-77087950D01*
X126555495Y-76973140D01*
X126653141Y-76875494D01*
X126767951Y-76798781D01*
X126895527Y-76745937D01*
X127030956Y-76718999D01*
X127169044Y-76718999D01*
X127304473Y-76745937D01*
X127304473Y-76745937D01*
G37*
G36*
X124764473Y-76745937D02*
G01*
X124892049Y-76798781D01*
X125006859Y-76875494D01*
X125104505Y-76973140D01*
X125181218Y-77087950D01*
X125234062Y-77215526D01*
X125261000Y-77350955D01*
X125261000Y-77489043D01*
X125234062Y-77624472D01*
X125181218Y-77752048D01*
X125104505Y-77866858D01*
X125006859Y-77964504D01*
X124892049Y-78041217D01*
X124764473Y-78094061D01*
X124629044Y-78120999D01*
X124490956Y-78120999D01*
X124355527Y-78094061D01*
X124227951Y-78041217D01*
X124113141Y-77964504D01*
X124015495Y-77866858D01*
X123938782Y-77752048D01*
X123885938Y-77624472D01*
X123859000Y-77489043D01*
X123859000Y-77350955D01*
X123885938Y-77215526D01*
X123938782Y-77087950D01*
X124015495Y-76973140D01*
X124113141Y-76875494D01*
X124227951Y-76798781D01*
X124355527Y-76745937D01*
X124490956Y-76718999D01*
X124629044Y-76718999D01*
X124764473Y-76745937D01*
X124764473Y-76745937D01*
G37*
G36*
X152704473Y-76745937D02*
G01*
X152832049Y-76798781D01*
X152946859Y-76875494D01*
X153044505Y-76973140D01*
X153121218Y-77087950D01*
X153174062Y-77215526D01*
X153201000Y-77350955D01*
X153201000Y-77489043D01*
X153174062Y-77624472D01*
X153121218Y-77752048D01*
X153044505Y-77866858D01*
X152946859Y-77964504D01*
X152832049Y-78041217D01*
X152704473Y-78094061D01*
X152569044Y-78120999D01*
X152430956Y-78120999D01*
X152295527Y-78094061D01*
X152167951Y-78041217D01*
X152053141Y-77964504D01*
X151955495Y-77866858D01*
X151878782Y-77752048D01*
X151825938Y-77624472D01*
X151799000Y-77489043D01*
X151799000Y-77350955D01*
X151825938Y-77215526D01*
X151878782Y-77087950D01*
X151955495Y-76973140D01*
X152053141Y-76875494D01*
X152167951Y-76798781D01*
X152295527Y-76745937D01*
X152430956Y-76718999D01*
X152569044Y-76718999D01*
X152704473Y-76745937D01*
X152704473Y-76745937D01*
G37*
G36*
X124764473Y-74205937D02*
G01*
X124892049Y-74258781D01*
X125006859Y-74335494D01*
X125104505Y-74433140D01*
X125181218Y-74547950D01*
X125234062Y-74675526D01*
X125261000Y-74810955D01*
X125261000Y-74949043D01*
X125234062Y-75084472D01*
X125181218Y-75212048D01*
X125104505Y-75326858D01*
X125006859Y-75424504D01*
X124892049Y-75501217D01*
X124764473Y-75554061D01*
X124629044Y-75580999D01*
X124490956Y-75580999D01*
X124355527Y-75554061D01*
X124227951Y-75501217D01*
X124113141Y-75424504D01*
X124015495Y-75326858D01*
X123938782Y-75212048D01*
X123885938Y-75084472D01*
X123859000Y-74949043D01*
X123859000Y-74810955D01*
X123885938Y-74675526D01*
X123938782Y-74547950D01*
X124015495Y-74433140D01*
X124113141Y-74335494D01*
X124227951Y-74258781D01*
X124355527Y-74205937D01*
X124490956Y-74178999D01*
X124629044Y-74178999D01*
X124764473Y-74205937D01*
X124764473Y-74205937D01*
G37*
G36*
X155244473Y-74205937D02*
G01*
X155372049Y-74258781D01*
X155486859Y-74335494D01*
X155584505Y-74433140D01*
X155661218Y-74547950D01*
X155714062Y-74675526D01*
X155741000Y-74810955D01*
X155741000Y-74949043D01*
X155714062Y-75084472D01*
X155661218Y-75212048D01*
X155584505Y-75326858D01*
X155486859Y-75424504D01*
X155372049Y-75501217D01*
X155244473Y-75554061D01*
X155109044Y-75580999D01*
X154970956Y-75580999D01*
X154835527Y-75554061D01*
X154707951Y-75501217D01*
X154593141Y-75424504D01*
X154495495Y-75326858D01*
X154418782Y-75212048D01*
X154365938Y-75084472D01*
X154339000Y-74949043D01*
X154339000Y-74810955D01*
X154365938Y-74675526D01*
X154418782Y-74547950D01*
X154495495Y-74433140D01*
X154593141Y-74335494D01*
X154707951Y-74258781D01*
X154835527Y-74205937D01*
X154970956Y-74178999D01*
X155109044Y-74178999D01*
X155244473Y-74205937D01*
X155244473Y-74205937D01*
G37*
G36*
X152704473Y-74205937D02*
G01*
X152832049Y-74258781D01*
X152946859Y-74335494D01*
X153044505Y-74433140D01*
X153121218Y-74547950D01*
X153174062Y-74675526D01*
X153201000Y-74810955D01*
X153201000Y-74949043D01*
X153174062Y-75084472D01*
X153121218Y-75212048D01*
X153044505Y-75326858D01*
X152946859Y-75424504D01*
X152832049Y-75501217D01*
X152704473Y-75554061D01*
X152569044Y-75580999D01*
X152430956Y-75580999D01*
X152295527Y-75554061D01*
X152167951Y-75501217D01*
X152053141Y-75424504D01*
X151955495Y-75326858D01*
X151878782Y-75212048D01*
X151825938Y-75084472D01*
X151799000Y-74949043D01*
X151799000Y-74810955D01*
X151825938Y-74675526D01*
X151878782Y-74547950D01*
X151955495Y-74433140D01*
X152053141Y-74335494D01*
X152167951Y-74258781D01*
X152295527Y-74205937D01*
X152430956Y-74178999D01*
X152569044Y-74178999D01*
X152704473Y-74205937D01*
X152704473Y-74205937D01*
G37*
G36*
X127304473Y-74205937D02*
G01*
X127432049Y-74258781D01*
X127546859Y-74335494D01*
X127644505Y-74433140D01*
X127721218Y-74547950D01*
X127774062Y-74675526D01*
X127801000Y-74810955D01*
X127801000Y-74949043D01*
X127774062Y-75084472D01*
X127721218Y-75212048D01*
X127644505Y-75326858D01*
X127546859Y-75424504D01*
X127432049Y-75501217D01*
X127304473Y-75554061D01*
X127169044Y-75580999D01*
X127030956Y-75580999D01*
X126895527Y-75554061D01*
X126767951Y-75501217D01*
X126653141Y-75424504D01*
X126555495Y-75326858D01*
X126478782Y-75212048D01*
X126425938Y-75084472D01*
X126399000Y-74949043D01*
X126399000Y-74810955D01*
X126425938Y-74675526D01*
X126478782Y-74547950D01*
X126555495Y-74433140D01*
X126653141Y-74335494D01*
X126767951Y-74258781D01*
X126895527Y-74205937D01*
X127030956Y-74178999D01*
X127169044Y-74178999D01*
X127304473Y-74205937D01*
X127304473Y-74205937D01*
G37*
G36*
X124764473Y-71665937D02*
G01*
X124892049Y-71718781D01*
X125006859Y-71795494D01*
X125104505Y-71893140D01*
X125181218Y-72007950D01*
X125234062Y-72135526D01*
X125261000Y-72270955D01*
X125261000Y-72409043D01*
X125234062Y-72544472D01*
X125181218Y-72672048D01*
X125104505Y-72786858D01*
X125006859Y-72884504D01*
X124892049Y-72961217D01*
X124764473Y-73014061D01*
X124629044Y-73040999D01*
X124490956Y-73040999D01*
X124355527Y-73014061D01*
X124227951Y-72961217D01*
X124113141Y-72884504D01*
X124015495Y-72786858D01*
X123938782Y-72672048D01*
X123885938Y-72544472D01*
X123859000Y-72409043D01*
X123859000Y-72270955D01*
X123885938Y-72135526D01*
X123938782Y-72007950D01*
X124015495Y-71893140D01*
X124113141Y-71795494D01*
X124227951Y-71718781D01*
X124355527Y-71665937D01*
X124490956Y-71638999D01*
X124629044Y-71638999D01*
X124764473Y-71665937D01*
X124764473Y-71665937D01*
G37*
G36*
X127304473Y-71665937D02*
G01*
X127432049Y-71718781D01*
X127546859Y-71795494D01*
X127644505Y-71893140D01*
X127721218Y-72007950D01*
X127774062Y-72135526D01*
X127801000Y-72270955D01*
X127801000Y-72409043D01*
X127774062Y-72544472D01*
X127721218Y-72672048D01*
X127644505Y-72786858D01*
X127546859Y-72884504D01*
X127432049Y-72961217D01*
X127304473Y-73014061D01*
X127169044Y-73040999D01*
X127030956Y-73040999D01*
X126895527Y-73014061D01*
X126767951Y-72961217D01*
X126653141Y-72884504D01*
X126555495Y-72786858D01*
X126478782Y-72672048D01*
X126425938Y-72544472D01*
X126399000Y-72409043D01*
X126399000Y-72270955D01*
X126425938Y-72135526D01*
X126478782Y-72007950D01*
X126555495Y-71893140D01*
X126653141Y-71795494D01*
X126767951Y-71718781D01*
X126895527Y-71665937D01*
X127030956Y-71638999D01*
X127169044Y-71638999D01*
X127304473Y-71665937D01*
X127304473Y-71665937D01*
G37*
G36*
X129844473Y-71665937D02*
G01*
X129972049Y-71718781D01*
X130086859Y-71795494D01*
X130184505Y-71893140D01*
X130261218Y-72007950D01*
X130314062Y-72135526D01*
X130341000Y-72270955D01*
X130341000Y-72409043D01*
X130314062Y-72544472D01*
X130261218Y-72672048D01*
X130184505Y-72786858D01*
X130086859Y-72884504D01*
X129972049Y-72961217D01*
X129844473Y-73014061D01*
X129709044Y-73040999D01*
X129570956Y-73040999D01*
X129435527Y-73014061D01*
X129307951Y-72961217D01*
X129193141Y-72884504D01*
X129095495Y-72786858D01*
X129018782Y-72672048D01*
X128965938Y-72544472D01*
X128939000Y-72409043D01*
X128939000Y-72270955D01*
X128965938Y-72135526D01*
X129018782Y-72007950D01*
X129095495Y-71893140D01*
X129193141Y-71795494D01*
X129307951Y-71718781D01*
X129435527Y-71665937D01*
X129570956Y-71638999D01*
X129709044Y-71638999D01*
X129844473Y-71665937D01*
X129844473Y-71665937D01*
G37*
G36*
X140004473Y-71665937D02*
G01*
X140132049Y-71718781D01*
X140246859Y-71795494D01*
X140344505Y-71893140D01*
X140421218Y-72007950D01*
X140474062Y-72135526D01*
X140501000Y-72270955D01*
X140501000Y-72409043D01*
X140474062Y-72544472D01*
X140421218Y-72672048D01*
X140344505Y-72786858D01*
X140246859Y-72884504D01*
X140132049Y-72961217D01*
X140004473Y-73014061D01*
X139869044Y-73040999D01*
X139730956Y-73040999D01*
X139595527Y-73014061D01*
X139467951Y-72961217D01*
X139353141Y-72884504D01*
X139255495Y-72786858D01*
X139178782Y-72672048D01*
X139125938Y-72544472D01*
X139099000Y-72409043D01*
X139099000Y-72270955D01*
X139125938Y-72135526D01*
X139178782Y-72007950D01*
X139255495Y-71893140D01*
X139353141Y-71795494D01*
X139467951Y-71718781D01*
X139595527Y-71665937D01*
X139730956Y-71638999D01*
X139869044Y-71638999D01*
X140004473Y-71665937D01*
X140004473Y-71665937D01*
G37*
G36*
X132384473Y-71665937D02*
G01*
X132512049Y-71718781D01*
X132626859Y-71795494D01*
X132724505Y-71893140D01*
X132801218Y-72007950D01*
X132854062Y-72135526D01*
X132881000Y-72270955D01*
X132881000Y-72409043D01*
X132854062Y-72544472D01*
X132801218Y-72672048D01*
X132724505Y-72786858D01*
X132626859Y-72884504D01*
X132512049Y-72961217D01*
X132384473Y-73014061D01*
X132249044Y-73040999D01*
X132110956Y-73040999D01*
X131975527Y-73014061D01*
X131847951Y-72961217D01*
X131733141Y-72884504D01*
X131635495Y-72786858D01*
X131558782Y-72672048D01*
X131505938Y-72544472D01*
X131479000Y-72409043D01*
X131479000Y-72270955D01*
X131505938Y-72135526D01*
X131558782Y-72007950D01*
X131635495Y-71893140D01*
X131733141Y-71795494D01*
X131847951Y-71718781D01*
X131975527Y-71665937D01*
X132110956Y-71638999D01*
X132249044Y-71638999D01*
X132384473Y-71665937D01*
X132384473Y-71665937D01*
G37*
G36*
X134924473Y-71665937D02*
G01*
X135052049Y-71718781D01*
X135166859Y-71795494D01*
X135264505Y-71893140D01*
X135341218Y-72007950D01*
X135394062Y-72135526D01*
X135421000Y-72270955D01*
X135421000Y-72409043D01*
X135394062Y-72544472D01*
X135341218Y-72672048D01*
X135264505Y-72786858D01*
X135166859Y-72884504D01*
X135052049Y-72961217D01*
X134924473Y-73014061D01*
X134789044Y-73040999D01*
X134650956Y-73040999D01*
X134515527Y-73014061D01*
X134387951Y-72961217D01*
X134273141Y-72884504D01*
X134175495Y-72786858D01*
X134098782Y-72672048D01*
X134045938Y-72544472D01*
X134019000Y-72409043D01*
X134019000Y-72270955D01*
X134045938Y-72135526D01*
X134098782Y-72007950D01*
X134175495Y-71893140D01*
X134273141Y-71795494D01*
X134387951Y-71718781D01*
X134515527Y-71665937D01*
X134650956Y-71638999D01*
X134789044Y-71638999D01*
X134924473Y-71665937D01*
X134924473Y-71665937D01*
G37*
G36*
X142544473Y-71665937D02*
G01*
X142672049Y-71718781D01*
X142786859Y-71795494D01*
X142884505Y-71893140D01*
X142961218Y-72007950D01*
X143014062Y-72135526D01*
X143041000Y-72270955D01*
X143041000Y-72409043D01*
X143014062Y-72544472D01*
X142961218Y-72672048D01*
X142884505Y-72786858D01*
X142786859Y-72884504D01*
X142672049Y-72961217D01*
X142544473Y-73014061D01*
X142409044Y-73040999D01*
X142270956Y-73040999D01*
X142135527Y-73014061D01*
X142007951Y-72961217D01*
X141893141Y-72884504D01*
X141795495Y-72786858D01*
X141718782Y-72672048D01*
X141665938Y-72544472D01*
X141639000Y-72409043D01*
X141639000Y-72270955D01*
X141665938Y-72135526D01*
X141718782Y-72007950D01*
X141795495Y-71893140D01*
X141893141Y-71795494D01*
X142007951Y-71718781D01*
X142135527Y-71665937D01*
X142270956Y-71638999D01*
X142409044Y-71638999D01*
X142544473Y-71665937D01*
X142544473Y-71665937D01*
G37*
G36*
X152704473Y-71665937D02*
G01*
X152832049Y-71718781D01*
X152946859Y-71795494D01*
X153044505Y-71893140D01*
X153121218Y-72007950D01*
X153174062Y-72135526D01*
X153201000Y-72270955D01*
X153201000Y-72409043D01*
X153174062Y-72544472D01*
X153121218Y-72672048D01*
X153044505Y-72786858D01*
X152946859Y-72884504D01*
X152832049Y-72961217D01*
X152704473Y-73014061D01*
X152569044Y-73040999D01*
X152430956Y-73040999D01*
X152295527Y-73014061D01*
X152167951Y-72961217D01*
X152053141Y-72884504D01*
X151955495Y-72786858D01*
X151878782Y-72672048D01*
X151825938Y-72544472D01*
X151799000Y-72409043D01*
X151799000Y-72270955D01*
X151825938Y-72135526D01*
X151878782Y-72007950D01*
X151955495Y-71893140D01*
X152053141Y-71795494D01*
X152167951Y-71718781D01*
X152295527Y-71665937D01*
X152430956Y-71638999D01*
X152569044Y-71638999D01*
X152704473Y-71665937D01*
X152704473Y-71665937D01*
G37*
G36*
X137464473Y-71665937D02*
G01*
X137592049Y-71718781D01*
X137706859Y-71795494D01*
X137804505Y-71893140D01*
X137881218Y-72007950D01*
X137934062Y-72135526D01*
X137961000Y-72270955D01*
X137961000Y-72409043D01*
X137934062Y-72544472D01*
X137881218Y-72672048D01*
X137804505Y-72786858D01*
X137706859Y-72884504D01*
X137592049Y-72961217D01*
X137464473Y-73014061D01*
X137329044Y-73040999D01*
X137190956Y-73040999D01*
X137055527Y-73014061D01*
X136927951Y-72961217D01*
X136813141Y-72884504D01*
X136715495Y-72786858D01*
X136638782Y-72672048D01*
X136585938Y-72544472D01*
X136559000Y-72409043D01*
X136559000Y-72270955D01*
X136585938Y-72135526D01*
X136638782Y-72007950D01*
X136715495Y-71893140D01*
X136813141Y-71795494D01*
X136927951Y-71718781D01*
X137055527Y-71665937D01*
X137190956Y-71638999D01*
X137329044Y-71638999D01*
X137464473Y-71665937D01*
X137464473Y-71665937D01*
G37*
G36*
X145084473Y-71665937D02*
G01*
X145212049Y-71718781D01*
X145326859Y-71795494D01*
X145424505Y-71893140D01*
X145501218Y-72007950D01*
X145554062Y-72135526D01*
X145581000Y-72270955D01*
X145581000Y-72409043D01*
X145554062Y-72544472D01*
X145501218Y-72672048D01*
X145424505Y-72786858D01*
X145326859Y-72884504D01*
X145212049Y-72961217D01*
X145084473Y-73014061D01*
X144949044Y-73040999D01*
X144810956Y-73040999D01*
X144675527Y-73014061D01*
X144547951Y-72961217D01*
X144433141Y-72884504D01*
X144335495Y-72786858D01*
X144258782Y-72672048D01*
X144205938Y-72544472D01*
X144179000Y-72409043D01*
X144179000Y-72270955D01*
X144205938Y-72135526D01*
X144258782Y-72007950D01*
X144335495Y-71893140D01*
X144433141Y-71795494D01*
X144547951Y-71718781D01*
X144675527Y-71665937D01*
X144810956Y-71638999D01*
X144949044Y-71638999D01*
X145084473Y-71665937D01*
X145084473Y-71665937D01*
G37*
G36*
X147624473Y-71665937D02*
G01*
X147752049Y-71718781D01*
X147866859Y-71795494D01*
X147964505Y-71893140D01*
X148041218Y-72007950D01*
X148094062Y-72135526D01*
X148121000Y-72270955D01*
X148121000Y-72409043D01*
X148094062Y-72544472D01*
X148041218Y-72672048D01*
X147964505Y-72786858D01*
X147866859Y-72884504D01*
X147752049Y-72961217D01*
X147624473Y-73014061D01*
X147489044Y-73040999D01*
X147350956Y-73040999D01*
X147215527Y-73014061D01*
X147087951Y-72961217D01*
X146973141Y-72884504D01*
X146875495Y-72786858D01*
X146798782Y-72672048D01*
X146745938Y-72544472D01*
X146719000Y-72409043D01*
X146719000Y-72270955D01*
X146745938Y-72135526D01*
X146798782Y-72007950D01*
X146875495Y-71893140D01*
X146973141Y-71795494D01*
X147087951Y-71718781D01*
X147215527Y-71665937D01*
X147350956Y-71638999D01*
X147489044Y-71638999D01*
X147624473Y-71665937D01*
X147624473Y-71665937D01*
G37*
G36*
X150164473Y-71665937D02*
G01*
X150292049Y-71718781D01*
X150406859Y-71795494D01*
X150504505Y-71893140D01*
X150581218Y-72007950D01*
X150634062Y-72135526D01*
X150661000Y-72270955D01*
X150661000Y-72409043D01*
X150634062Y-72544472D01*
X150581218Y-72672048D01*
X150504505Y-72786858D01*
X150406859Y-72884504D01*
X150292049Y-72961217D01*
X150164473Y-73014061D01*
X150029044Y-73040999D01*
X149890956Y-73040999D01*
X149755527Y-73014061D01*
X149627951Y-72961217D01*
X149513141Y-72884504D01*
X149415495Y-72786858D01*
X149338782Y-72672048D01*
X149285938Y-72544472D01*
X149259000Y-72409043D01*
X149259000Y-72270955D01*
X149285938Y-72135526D01*
X149338782Y-72007950D01*
X149415495Y-71893140D01*
X149513141Y-71795494D01*
X149627951Y-71718781D01*
X149755527Y-71665937D01*
X149890956Y-71638999D01*
X150029044Y-71638999D01*
X150164473Y-71665937D01*
X150164473Y-71665937D01*
G37*
G36*
X155244473Y-71665937D02*
G01*
X155372049Y-71718781D01*
X155486859Y-71795494D01*
X155584505Y-71893140D01*
X155661218Y-72007950D01*
X155714062Y-72135526D01*
X155741000Y-72270955D01*
X155741000Y-72409043D01*
X155714062Y-72544472D01*
X155661218Y-72672048D01*
X155584505Y-72786858D01*
X155486859Y-72884504D01*
X155372049Y-72961217D01*
X155244473Y-73014061D01*
X155109044Y-73040999D01*
X154970956Y-73040999D01*
X154835527Y-73014061D01*
X154707951Y-72961217D01*
X154593141Y-72884504D01*
X154495495Y-72786858D01*
X154418782Y-72672048D01*
X154365938Y-72544472D01*
X154339000Y-72409043D01*
X154339000Y-72270955D01*
X154365938Y-72135526D01*
X154418782Y-72007950D01*
X154495495Y-71893140D01*
X154593141Y-71795494D01*
X154707951Y-71718781D01*
X154835527Y-71665937D01*
X154970956Y-71638999D01*
X155109044Y-71638999D01*
X155244473Y-71665937D01*
X155244473Y-71665937D01*
G37*
G36*
X152704473Y-69125937D02*
G01*
X152832049Y-69178781D01*
X152946859Y-69255494D01*
X153044505Y-69353140D01*
X153121218Y-69467950D01*
X153174062Y-69595526D01*
X153201000Y-69730955D01*
X153201000Y-69869043D01*
X153174062Y-70004472D01*
X153121218Y-70132048D01*
X153044505Y-70246858D01*
X152946859Y-70344504D01*
X152832049Y-70421217D01*
X152704473Y-70474061D01*
X152569044Y-70500999D01*
X152430956Y-70500999D01*
X152295527Y-70474061D01*
X152167951Y-70421217D01*
X152053141Y-70344504D01*
X151955495Y-70246858D01*
X151878782Y-70132048D01*
X151825938Y-70004472D01*
X151799000Y-69869043D01*
X151799000Y-69730955D01*
X151825938Y-69595526D01*
X151878782Y-69467950D01*
X151955495Y-69353140D01*
X152053141Y-69255494D01*
X152167951Y-69178781D01*
X152295527Y-69125937D01*
X152430956Y-69098999D01*
X152569044Y-69098999D01*
X152704473Y-69125937D01*
X152704473Y-69125937D01*
G37*
G36*
X145084473Y-69125937D02*
G01*
X145212049Y-69178781D01*
X145326859Y-69255494D01*
X145424505Y-69353140D01*
X145501218Y-69467950D01*
X145554062Y-69595526D01*
X145581000Y-69730955D01*
X145581000Y-69869043D01*
X145554062Y-70004472D01*
X145501218Y-70132048D01*
X145424505Y-70246858D01*
X145326859Y-70344504D01*
X145212049Y-70421217D01*
X145084473Y-70474061D01*
X144949044Y-70500999D01*
X144810956Y-70500999D01*
X144675527Y-70474061D01*
X144547951Y-70421217D01*
X144433141Y-70344504D01*
X144335495Y-70246858D01*
X144258782Y-70132048D01*
X144205938Y-70004472D01*
X144179000Y-69869043D01*
X144179000Y-69730955D01*
X144205938Y-69595526D01*
X144258782Y-69467950D01*
X144335495Y-69353140D01*
X144433141Y-69255494D01*
X144547951Y-69178781D01*
X144675527Y-69125937D01*
X144810956Y-69098999D01*
X144949044Y-69098999D01*
X145084473Y-69125937D01*
X145084473Y-69125937D01*
G37*
G36*
X132384473Y-69125937D02*
G01*
X132512049Y-69178781D01*
X132626859Y-69255494D01*
X132724505Y-69353140D01*
X132801218Y-69467950D01*
X132854062Y-69595526D01*
X132881000Y-69730955D01*
X132881000Y-69869043D01*
X132854062Y-70004472D01*
X132801218Y-70132048D01*
X132724505Y-70246858D01*
X132626859Y-70344504D01*
X132512049Y-70421217D01*
X132384473Y-70474061D01*
X132249044Y-70500999D01*
X132110956Y-70500999D01*
X131975527Y-70474061D01*
X131847951Y-70421217D01*
X131733141Y-70344504D01*
X131635495Y-70246858D01*
X131558782Y-70132048D01*
X131505938Y-70004472D01*
X131479000Y-69869043D01*
X131479000Y-69730955D01*
X131505938Y-69595526D01*
X131558782Y-69467950D01*
X131635495Y-69353140D01*
X131733141Y-69255494D01*
X131847951Y-69178781D01*
X131975527Y-69125937D01*
X132110956Y-69098999D01*
X132249044Y-69098999D01*
X132384473Y-69125937D01*
X132384473Y-69125937D01*
G37*
G36*
X129844473Y-69125937D02*
G01*
X129972049Y-69178781D01*
X130086859Y-69255494D01*
X130184505Y-69353140D01*
X130261218Y-69467950D01*
X130314062Y-69595526D01*
X130341000Y-69730955D01*
X130341000Y-69869043D01*
X130314062Y-70004472D01*
X130261218Y-70132048D01*
X130184505Y-70246858D01*
X130086859Y-70344504D01*
X129972049Y-70421217D01*
X129844473Y-70474061D01*
X129709044Y-70500999D01*
X129570956Y-70500999D01*
X129435527Y-70474061D01*
X129307951Y-70421217D01*
X129193141Y-70344504D01*
X129095495Y-70246858D01*
X129018782Y-70132048D01*
X128965938Y-70004472D01*
X128939000Y-69869043D01*
X128939000Y-69730955D01*
X128965938Y-69595526D01*
X129018782Y-69467950D01*
X129095495Y-69353140D01*
X129193141Y-69255494D01*
X129307951Y-69178781D01*
X129435527Y-69125937D01*
X129570956Y-69098999D01*
X129709044Y-69098999D01*
X129844473Y-69125937D01*
X129844473Y-69125937D01*
G37*
G36*
X127304473Y-69125937D02*
G01*
X127432049Y-69178781D01*
X127546859Y-69255494D01*
X127644505Y-69353140D01*
X127721218Y-69467950D01*
X127774062Y-69595526D01*
X127801000Y-69730955D01*
X127801000Y-69869043D01*
X127774062Y-70004472D01*
X127721218Y-70132048D01*
X127644505Y-70246858D01*
X127546859Y-70344504D01*
X127432049Y-70421217D01*
X127304473Y-70474061D01*
X127169044Y-70500999D01*
X127030956Y-70500999D01*
X126895527Y-70474061D01*
X126767951Y-70421217D01*
X126653141Y-70344504D01*
X126555495Y-70246858D01*
X126478782Y-70132048D01*
X126425938Y-70004472D01*
X126399000Y-69869043D01*
X126399000Y-69730955D01*
X126425938Y-69595526D01*
X126478782Y-69467950D01*
X126555495Y-69353140D01*
X126653141Y-69255494D01*
X126767951Y-69178781D01*
X126895527Y-69125937D01*
X127030956Y-69098999D01*
X127169044Y-69098999D01*
X127304473Y-69125937D01*
X127304473Y-69125937D01*
G37*
G36*
X137464473Y-69125937D02*
G01*
X137592049Y-69178781D01*
X137706859Y-69255494D01*
X137804505Y-69353140D01*
X137881218Y-69467950D01*
X137934062Y-69595526D01*
X137961000Y-69730955D01*
X137961000Y-69869043D01*
X137934062Y-70004472D01*
X137881218Y-70132048D01*
X137804505Y-70246858D01*
X137706859Y-70344504D01*
X137592049Y-70421217D01*
X137464473Y-70474061D01*
X137329044Y-70500999D01*
X137190956Y-70500999D01*
X137055527Y-70474061D01*
X136927951Y-70421217D01*
X136813141Y-70344504D01*
X136715495Y-70246858D01*
X136638782Y-70132048D01*
X136585938Y-70004472D01*
X136559000Y-69869043D01*
X136559000Y-69730955D01*
X136585938Y-69595526D01*
X136638782Y-69467950D01*
X136715495Y-69353140D01*
X136813141Y-69255494D01*
X136927951Y-69178781D01*
X137055527Y-69125937D01*
X137190956Y-69098999D01*
X137329044Y-69098999D01*
X137464473Y-69125937D01*
X137464473Y-69125937D01*
G37*
G36*
X142544473Y-69125937D02*
G01*
X142672049Y-69178781D01*
X142786859Y-69255494D01*
X142884505Y-69353140D01*
X142961218Y-69467950D01*
X143014062Y-69595526D01*
X143041000Y-69730955D01*
X143041000Y-69869043D01*
X143014062Y-70004472D01*
X142961218Y-70132048D01*
X142884505Y-70246858D01*
X142786859Y-70344504D01*
X142672049Y-70421217D01*
X142544473Y-70474061D01*
X142409044Y-70500999D01*
X142270956Y-70500999D01*
X142135527Y-70474061D01*
X142007951Y-70421217D01*
X141893141Y-70344504D01*
X141795495Y-70246858D01*
X141718782Y-70132048D01*
X141665938Y-70004472D01*
X141639000Y-69869043D01*
X141639000Y-69730955D01*
X141665938Y-69595526D01*
X141718782Y-69467950D01*
X141795495Y-69353140D01*
X141893141Y-69255494D01*
X142007951Y-69178781D01*
X142135527Y-69125937D01*
X142270956Y-69098999D01*
X142409044Y-69098999D01*
X142544473Y-69125937D01*
X142544473Y-69125937D01*
G37*
G36*
X134924473Y-69125937D02*
G01*
X135052049Y-69178781D01*
X135166859Y-69255494D01*
X135264505Y-69353140D01*
X135341218Y-69467950D01*
X135394062Y-69595526D01*
X135421000Y-69730955D01*
X135421000Y-69869043D01*
X135394062Y-70004472D01*
X135341218Y-70132048D01*
X135264505Y-70246858D01*
X135166859Y-70344504D01*
X135052049Y-70421217D01*
X134924473Y-70474061D01*
X134789044Y-70500999D01*
X134650956Y-70500999D01*
X134515527Y-70474061D01*
X134387951Y-70421217D01*
X134273141Y-70344504D01*
X134175495Y-70246858D01*
X134098782Y-70132048D01*
X134045938Y-70004472D01*
X134019000Y-69869043D01*
X134019000Y-69730955D01*
X134045938Y-69595526D01*
X134098782Y-69467950D01*
X134175495Y-69353140D01*
X134273141Y-69255494D01*
X134387951Y-69178781D01*
X134515527Y-69125937D01*
X134650956Y-69098999D01*
X134789044Y-69098999D01*
X134924473Y-69125937D01*
X134924473Y-69125937D01*
G37*
G36*
X150164473Y-69125937D02*
G01*
X150292049Y-69178781D01*
X150406859Y-69255494D01*
X150504505Y-69353140D01*
X150581218Y-69467950D01*
X150634062Y-69595526D01*
X150661000Y-69730955D01*
X150661000Y-69869043D01*
X150634062Y-70004472D01*
X150581218Y-70132048D01*
X150504505Y-70246858D01*
X150406859Y-70344504D01*
X150292049Y-70421217D01*
X150164473Y-70474061D01*
X150029044Y-70500999D01*
X149890956Y-70500999D01*
X149755527Y-70474061D01*
X149627951Y-70421217D01*
X149513141Y-70344504D01*
X149415495Y-70246858D01*
X149338782Y-70132048D01*
X149285938Y-70004472D01*
X149259000Y-69869043D01*
X149259000Y-69730955D01*
X149285938Y-69595526D01*
X149338782Y-69467950D01*
X149415495Y-69353140D01*
X149513141Y-69255494D01*
X149627951Y-69178781D01*
X149755527Y-69125937D01*
X149890956Y-69098999D01*
X150029044Y-69098999D01*
X150164473Y-69125937D01*
X150164473Y-69125937D01*
G37*
G36*
X147624473Y-69125937D02*
G01*
X147752049Y-69178781D01*
X147866859Y-69255494D01*
X147964505Y-69353140D01*
X148041218Y-69467950D01*
X148094062Y-69595526D01*
X148121000Y-69730955D01*
X148121000Y-69869043D01*
X148094062Y-70004472D01*
X148041218Y-70132048D01*
X147964505Y-70246858D01*
X147866859Y-70344504D01*
X147752049Y-70421217D01*
X147624473Y-70474061D01*
X147489044Y-70500999D01*
X147350956Y-70500999D01*
X147215527Y-70474061D01*
X147087951Y-70421217D01*
X146973141Y-70344504D01*
X146875495Y-70246858D01*
X146798782Y-70132048D01*
X146745938Y-70004472D01*
X146719000Y-69869043D01*
X146719000Y-69730955D01*
X146745938Y-69595526D01*
X146798782Y-69467950D01*
X146875495Y-69353140D01*
X146973141Y-69255494D01*
X147087951Y-69178781D01*
X147215527Y-69125937D01*
X147350956Y-69098999D01*
X147489044Y-69098999D01*
X147624473Y-69125937D01*
X147624473Y-69125937D01*
G37*
G36*
X140004473Y-69125937D02*
G01*
X140132049Y-69178781D01*
X140246859Y-69255494D01*
X140344505Y-69353140D01*
X140421218Y-69467950D01*
X140474062Y-69595526D01*
X140501000Y-69730955D01*
X140501000Y-69869043D01*
X140474062Y-70004472D01*
X140421218Y-70132048D01*
X140344505Y-70246858D01*
X140246859Y-70344504D01*
X140132049Y-70421217D01*
X140004473Y-70474061D01*
X139869044Y-70500999D01*
X139730956Y-70500999D01*
X139595527Y-70474061D01*
X139467951Y-70421217D01*
X139353141Y-70344504D01*
X139255495Y-70246858D01*
X139178782Y-70132048D01*
X139125938Y-70004472D01*
X139099000Y-69869043D01*
X139099000Y-69730955D01*
X139125938Y-69595526D01*
X139178782Y-69467950D01*
X139255495Y-69353140D01*
X139353141Y-69255494D01*
X139467951Y-69178781D01*
X139595527Y-69125937D01*
X139730956Y-69098999D01*
X139869044Y-69098999D01*
X140004473Y-69125937D01*
X140004473Y-69125937D01*
G37*
G36*
X146262142Y-64228241D02*
G01*
X146410101Y-64289528D01*
X146543255Y-64378498D01*
X146656501Y-64491744D01*
X146745471Y-64624898D01*
X146806758Y-64772857D01*
X146838000Y-64929924D01*
X146838000Y-65090074D01*
X146806758Y-65247141D01*
X146745471Y-65395100D01*
X146656501Y-65528254D01*
X146543255Y-65641500D01*
X146410101Y-65730470D01*
X146262142Y-65791757D01*
X146105075Y-65822999D01*
X145944925Y-65822999D01*
X145787858Y-65791757D01*
X145639899Y-65730470D01*
X145506745Y-65641500D01*
X145393499Y-65528254D01*
X145304529Y-65395100D01*
X145243242Y-65247141D01*
X145212000Y-65090074D01*
X145212000Y-64929924D01*
X145243242Y-64772857D01*
X145304529Y-64624898D01*
X145393499Y-64491744D01*
X145506745Y-64378498D01*
X145639899Y-64289528D01*
X145787858Y-64228241D01*
X145944925Y-64196999D01*
X146105075Y-64196999D01*
X146262142Y-64228241D01*
X146262142Y-64228241D01*
G37*
G36*
X151342142Y-64228241D02*
G01*
X151490101Y-64289528D01*
X151623255Y-64378498D01*
X151736501Y-64491744D01*
X151825471Y-64624898D01*
X151886758Y-64772857D01*
X151918000Y-64929924D01*
X151918000Y-65090074D01*
X151886758Y-65247141D01*
X151825471Y-65395100D01*
X151736501Y-65528254D01*
X151623255Y-65641500D01*
X151490101Y-65730470D01*
X151342142Y-65791757D01*
X151185075Y-65822999D01*
X151024925Y-65822999D01*
X150867858Y-65791757D01*
X150719899Y-65730470D01*
X150586745Y-65641500D01*
X150473499Y-65528254D01*
X150384529Y-65395100D01*
X150323242Y-65247141D01*
X150292000Y-65090074D01*
X150292000Y-64929924D01*
X150323242Y-64772857D01*
X150384529Y-64624898D01*
X150473499Y-64491744D01*
X150586745Y-64378498D01*
X150719899Y-64289528D01*
X150867858Y-64228241D01*
X151024925Y-64196999D01*
X151185075Y-64196999D01*
X151342142Y-64228241D01*
X151342142Y-64228241D01*
G37*
G36*
X143722142Y-64228241D02*
G01*
X143870101Y-64289528D01*
X144003255Y-64378498D01*
X144116501Y-64491744D01*
X144205471Y-64624898D01*
X144266758Y-64772857D01*
X144298000Y-64929924D01*
X144298000Y-65090074D01*
X144266758Y-65247141D01*
X144205471Y-65395100D01*
X144116501Y-65528254D01*
X144003255Y-65641500D01*
X143870101Y-65730470D01*
X143722142Y-65791757D01*
X143565075Y-65822999D01*
X143404925Y-65822999D01*
X143247858Y-65791757D01*
X143099899Y-65730470D01*
X142966745Y-65641500D01*
X142853499Y-65528254D01*
X142764529Y-65395100D01*
X142703242Y-65247141D01*
X142672000Y-65090074D01*
X142672000Y-64929924D01*
X142703242Y-64772857D01*
X142764529Y-64624898D01*
X142853499Y-64491744D01*
X142966745Y-64378498D01*
X143099899Y-64289528D01*
X143247858Y-64228241D01*
X143404925Y-64196999D01*
X143565075Y-64196999D01*
X143722142Y-64228241D01*
X143722142Y-64228241D01*
G37*
G36*
X141182142Y-64228241D02*
G01*
X141330101Y-64289528D01*
X141463255Y-64378498D01*
X141576501Y-64491744D01*
X141665471Y-64624898D01*
X141726758Y-64772857D01*
X141758000Y-64929924D01*
X141758000Y-65090074D01*
X141726758Y-65247141D01*
X141665471Y-65395100D01*
X141576501Y-65528254D01*
X141463255Y-65641500D01*
X141330101Y-65730470D01*
X141182142Y-65791757D01*
X141025075Y-65822999D01*
X140864925Y-65822999D01*
X140707858Y-65791757D01*
X140559899Y-65730470D01*
X140426745Y-65641500D01*
X140313499Y-65528254D01*
X140224529Y-65395100D01*
X140163242Y-65247141D01*
X140132000Y-65090074D01*
X140132000Y-64929924D01*
X140163242Y-64772857D01*
X140224529Y-64624898D01*
X140313499Y-64491744D01*
X140426745Y-64378498D01*
X140559899Y-64289528D01*
X140707858Y-64228241D01*
X140864925Y-64196999D01*
X141025075Y-64196999D01*
X141182142Y-64228241D01*
X141182142Y-64228241D01*
G37*
G36*
X138642142Y-64228241D02*
G01*
X138790101Y-64289528D01*
X138923255Y-64378498D01*
X139036501Y-64491744D01*
X139125471Y-64624898D01*
X139186758Y-64772857D01*
X139218000Y-64929924D01*
X139218000Y-65090074D01*
X139186758Y-65247141D01*
X139125471Y-65395100D01*
X139036501Y-65528254D01*
X138923255Y-65641500D01*
X138790101Y-65730470D01*
X138642142Y-65791757D01*
X138485075Y-65822999D01*
X138324925Y-65822999D01*
X138167858Y-65791757D01*
X138019899Y-65730470D01*
X137886745Y-65641500D01*
X137773499Y-65528254D01*
X137684529Y-65395100D01*
X137623242Y-65247141D01*
X137592000Y-65090074D01*
X137592000Y-64929924D01*
X137623242Y-64772857D01*
X137684529Y-64624898D01*
X137773499Y-64491744D01*
X137886745Y-64378498D01*
X138019899Y-64289528D01*
X138167858Y-64228241D01*
X138324925Y-64196999D01*
X138485075Y-64196999D01*
X138642142Y-64228241D01*
X138642142Y-64228241D01*
G37*
G36*
X131022142Y-64228241D02*
G01*
X131170101Y-64289528D01*
X131303255Y-64378498D01*
X131416501Y-64491744D01*
X131505471Y-64624898D01*
X131566758Y-64772857D01*
X131598000Y-64929924D01*
X131598000Y-65090074D01*
X131566758Y-65247141D01*
X131505471Y-65395100D01*
X131416501Y-65528254D01*
X131303255Y-65641500D01*
X131170101Y-65730470D01*
X131022142Y-65791757D01*
X130865075Y-65822999D01*
X130704925Y-65822999D01*
X130547858Y-65791757D01*
X130399899Y-65730470D01*
X130266745Y-65641500D01*
X130153499Y-65528254D01*
X130064529Y-65395100D01*
X130003242Y-65247141D01*
X129972000Y-65090074D01*
X129972000Y-64929924D01*
X130003242Y-64772857D01*
X130064529Y-64624898D01*
X130153499Y-64491744D01*
X130266745Y-64378498D01*
X130399899Y-64289528D01*
X130547858Y-64228241D01*
X130704925Y-64196999D01*
X130865075Y-64196999D01*
X131022142Y-64228241D01*
X131022142Y-64228241D01*
G37*
G36*
X128482142Y-64228241D02*
G01*
X128630101Y-64289528D01*
X128763255Y-64378498D01*
X128876501Y-64491744D01*
X128965471Y-64624898D01*
X129026758Y-64772857D01*
X129058000Y-64929924D01*
X129058000Y-65090074D01*
X129026758Y-65247141D01*
X128965471Y-65395100D01*
X128876501Y-65528254D01*
X128763255Y-65641500D01*
X128630101Y-65730470D01*
X128482142Y-65791757D01*
X128325075Y-65822999D01*
X128164925Y-65822999D01*
X128007858Y-65791757D01*
X127859899Y-65730470D01*
X127726745Y-65641500D01*
X127613499Y-65528254D01*
X127524529Y-65395100D01*
X127463242Y-65247141D01*
X127432000Y-65090074D01*
X127432000Y-64929924D01*
X127463242Y-64772857D01*
X127524529Y-64624898D01*
X127613499Y-64491744D01*
X127726745Y-64378498D01*
X127859899Y-64289528D01*
X128007858Y-64228241D01*
X128164925Y-64196999D01*
X128325075Y-64196999D01*
X128482142Y-64228241D01*
X128482142Y-64228241D01*
G37*
G36*
X148802142Y-64228241D02*
G01*
X148950101Y-64289528D01*
X149083255Y-64378498D01*
X149196501Y-64491744D01*
X149285471Y-64624898D01*
X149346758Y-64772857D01*
X149378000Y-64929924D01*
X149378000Y-65090074D01*
X149346758Y-65247141D01*
X149285471Y-65395100D01*
X149196501Y-65528254D01*
X149083255Y-65641500D01*
X148950101Y-65730470D01*
X148802142Y-65791757D01*
X148645075Y-65822999D01*
X148484925Y-65822999D01*
X148327858Y-65791757D01*
X148179899Y-65730470D01*
X148046745Y-65641500D01*
X147933499Y-65528254D01*
X147844529Y-65395100D01*
X147783242Y-65247141D01*
X147752000Y-65090074D01*
X147752000Y-64929924D01*
X147783242Y-64772857D01*
X147844529Y-64624898D01*
X147933499Y-64491744D01*
X148046745Y-64378498D01*
X148179899Y-64289528D01*
X148327858Y-64228241D01*
X148484925Y-64196999D01*
X148645075Y-64196999D01*
X148802142Y-64228241D01*
X148802142Y-64228241D01*
G37*
G36*
X136102142Y-64228241D02*
G01*
X136250101Y-64289528D01*
X136383255Y-64378498D01*
X136496501Y-64491744D01*
X136585471Y-64624898D01*
X136646758Y-64772857D01*
X136678000Y-64929924D01*
X136678000Y-65090074D01*
X136646758Y-65247141D01*
X136585471Y-65395100D01*
X136496501Y-65528254D01*
X136383255Y-65641500D01*
X136250101Y-65730470D01*
X136102142Y-65791757D01*
X135945075Y-65822999D01*
X135784925Y-65822999D01*
X135627858Y-65791757D01*
X135479899Y-65730470D01*
X135346745Y-65641500D01*
X135233499Y-65528254D01*
X135144529Y-65395100D01*
X135083242Y-65247141D01*
X135052000Y-65090074D01*
X135052000Y-64929924D01*
X135083242Y-64772857D01*
X135144529Y-64624898D01*
X135233499Y-64491744D01*
X135346745Y-64378498D01*
X135479899Y-64289528D01*
X135627858Y-64228241D01*
X135784925Y-64196999D01*
X135945075Y-64196999D01*
X136102142Y-64228241D01*
X136102142Y-64228241D01*
G37*
G36*
X133562142Y-64228241D02*
G01*
X133710101Y-64289528D01*
X133843255Y-64378498D01*
X133956501Y-64491744D01*
X134045471Y-64624898D01*
X134106758Y-64772857D01*
X134138000Y-64929924D01*
X134138000Y-65090074D01*
X134106758Y-65247141D01*
X134045471Y-65395100D01*
X133956501Y-65528254D01*
X133843255Y-65641500D01*
X133710101Y-65730470D01*
X133562142Y-65791757D01*
X133405075Y-65822999D01*
X133244925Y-65822999D01*
X133087858Y-65791757D01*
X132939899Y-65730470D01*
X132806745Y-65641500D01*
X132693499Y-65528254D01*
X132604529Y-65395100D01*
X132543242Y-65247141D01*
X132512000Y-65090074D01*
X132512000Y-64929924D01*
X132543242Y-64772857D01*
X132604529Y-64624898D01*
X132693499Y-64491744D01*
X132806745Y-64378498D01*
X132939899Y-64289528D01*
X133087858Y-64228241D01*
X133244925Y-64196999D01*
X133405075Y-64196999D01*
X133562142Y-64228241D01*
X133562142Y-64228241D01*
G37*
G36*
X166672585Y-60708802D02*
G01*
X166822410Y-60738604D01*
X167104674Y-60855521D01*
X167358705Y-61025259D01*
X167574741Y-61241295D01*
X167744479Y-61495326D01*
X167861396Y-61777590D01*
X167921000Y-62077240D01*
X167921000Y-62382760D01*
X167861396Y-62682410D01*
X167744479Y-62964674D01*
X167574741Y-63218705D01*
X167358705Y-63434741D01*
X167104674Y-63604479D01*
X166822410Y-63721396D01*
X166672585Y-63751198D01*
X166522761Y-63781000D01*
X166217239Y-63781000D01*
X166067415Y-63751198D01*
X165917590Y-63721396D01*
X165635326Y-63604479D01*
X165381295Y-63434741D01*
X165165259Y-63218705D01*
X164995521Y-62964674D01*
X164878604Y-62682410D01*
X164819000Y-62382760D01*
X164819000Y-62077240D01*
X164878604Y-61777590D01*
X164995521Y-61495326D01*
X165165259Y-61241295D01*
X165381295Y-61025259D01*
X165635326Y-60855521D01*
X165917590Y-60738604D01*
X166067415Y-60708802D01*
X166217239Y-60679000D01*
X166522761Y-60679000D01*
X166672585Y-60708802D01*
X166672585Y-60708802D01*
G37*
G36*
X113332585Y-60708802D02*
G01*
X113482410Y-60738604D01*
X113764674Y-60855521D01*
X114018705Y-61025259D01*
X114234741Y-61241295D01*
X114404479Y-61495326D01*
X114521396Y-61777590D01*
X114581000Y-62077240D01*
X114581000Y-62382760D01*
X114521396Y-62682410D01*
X114404479Y-62964674D01*
X114234741Y-63218705D01*
X114018705Y-63434741D01*
X113764674Y-63604479D01*
X113482410Y-63721396D01*
X113332585Y-63751198D01*
X113182761Y-63781000D01*
X112877239Y-63781000D01*
X112727415Y-63751198D01*
X112577590Y-63721396D01*
X112295326Y-63604479D01*
X112041295Y-63434741D01*
X111825259Y-63218705D01*
X111655521Y-62964674D01*
X111538604Y-62682410D01*
X111479000Y-62382760D01*
X111479000Y-62077240D01*
X111538604Y-61777590D01*
X111655521Y-61495326D01*
X111825259Y-61241295D01*
X112041295Y-61025259D01*
X112295326Y-60855521D01*
X112577590Y-60738604D01*
X112727415Y-60708802D01*
X112877239Y-60679000D01*
X113182761Y-60679000D01*
X113332585Y-60708802D01*
X113332585Y-60708802D01*
G37*
G36*
X128482142Y-61688241D02*
G01*
X128630101Y-61749528D01*
X128763255Y-61838498D01*
X128876501Y-61951744D01*
X128965471Y-62084898D01*
X129026758Y-62232857D01*
X129058000Y-62389924D01*
X129058000Y-62550074D01*
X129026758Y-62707141D01*
X128965471Y-62855100D01*
X128876501Y-62988254D01*
X128763255Y-63101500D01*
X128630101Y-63190470D01*
X128482142Y-63251757D01*
X128325075Y-63282999D01*
X128164925Y-63282999D01*
X128007858Y-63251757D01*
X127859899Y-63190470D01*
X127726745Y-63101500D01*
X127613499Y-62988254D01*
X127524529Y-62855100D01*
X127463242Y-62707141D01*
X127432000Y-62550074D01*
X127432000Y-62389924D01*
X127463242Y-62232857D01*
X127524529Y-62084898D01*
X127613499Y-61951744D01*
X127726745Y-61838498D01*
X127859899Y-61749528D01*
X128007858Y-61688241D01*
X128164925Y-61656999D01*
X128325075Y-61656999D01*
X128482142Y-61688241D01*
X128482142Y-61688241D01*
G37*
G36*
X133562142Y-61688241D02*
G01*
X133710101Y-61749528D01*
X133843255Y-61838498D01*
X133956501Y-61951744D01*
X134045471Y-62084898D01*
X134106758Y-62232857D01*
X134138000Y-62389924D01*
X134138000Y-62550074D01*
X134106758Y-62707141D01*
X134045471Y-62855100D01*
X133956501Y-62988254D01*
X133843255Y-63101500D01*
X133710101Y-63190470D01*
X133562142Y-63251757D01*
X133405075Y-63282999D01*
X133244925Y-63282999D01*
X133087858Y-63251757D01*
X132939899Y-63190470D01*
X132806745Y-63101500D01*
X132693499Y-62988254D01*
X132604529Y-62855100D01*
X132543242Y-62707141D01*
X132512000Y-62550074D01*
X132512000Y-62389924D01*
X132543242Y-62232857D01*
X132604529Y-62084898D01*
X132693499Y-61951744D01*
X132806745Y-61838498D01*
X132939899Y-61749528D01*
X133087858Y-61688241D01*
X133244925Y-61656999D01*
X133405075Y-61656999D01*
X133562142Y-61688241D01*
X133562142Y-61688241D01*
G37*
G36*
X136102142Y-61688241D02*
G01*
X136250101Y-61749528D01*
X136383255Y-61838498D01*
X136496501Y-61951744D01*
X136585471Y-62084898D01*
X136646758Y-62232857D01*
X136678000Y-62389924D01*
X136678000Y-62550074D01*
X136646758Y-62707141D01*
X136585471Y-62855100D01*
X136496501Y-62988254D01*
X136383255Y-63101500D01*
X136250101Y-63190470D01*
X136102142Y-63251757D01*
X135945075Y-63282999D01*
X135784925Y-63282999D01*
X135627858Y-63251757D01*
X135479899Y-63190470D01*
X135346745Y-63101500D01*
X135233499Y-62988254D01*
X135144529Y-62855100D01*
X135083242Y-62707141D01*
X135052000Y-62550074D01*
X135052000Y-62389924D01*
X135083242Y-62232857D01*
X135144529Y-62084898D01*
X135233499Y-61951744D01*
X135346745Y-61838498D01*
X135479899Y-61749528D01*
X135627858Y-61688241D01*
X135784925Y-61656999D01*
X135945075Y-61656999D01*
X136102142Y-61688241D01*
X136102142Y-61688241D01*
G37*
G36*
X138642142Y-61688241D02*
G01*
X138790101Y-61749528D01*
X138923255Y-61838498D01*
X139036501Y-61951744D01*
X139125471Y-62084898D01*
X139186758Y-62232857D01*
X139218000Y-62389924D01*
X139218000Y-62550074D01*
X139186758Y-62707141D01*
X139125471Y-62855100D01*
X139036501Y-62988254D01*
X138923255Y-63101500D01*
X138790101Y-63190470D01*
X138642142Y-63251757D01*
X138485075Y-63282999D01*
X138324925Y-63282999D01*
X138167858Y-63251757D01*
X138019899Y-63190470D01*
X137886745Y-63101500D01*
X137773499Y-62988254D01*
X137684529Y-62855100D01*
X137623242Y-62707141D01*
X137592000Y-62550074D01*
X137592000Y-62389924D01*
X137623242Y-62232857D01*
X137684529Y-62084898D01*
X137773499Y-61951744D01*
X137886745Y-61838498D01*
X138019899Y-61749528D01*
X138167858Y-61688241D01*
X138324925Y-61656999D01*
X138485075Y-61656999D01*
X138642142Y-61688241D01*
X138642142Y-61688241D01*
G37*
G36*
X141182142Y-61688241D02*
G01*
X141330101Y-61749528D01*
X141463255Y-61838498D01*
X141576501Y-61951744D01*
X141665471Y-62084898D01*
X141726758Y-62232857D01*
X141758000Y-62389924D01*
X141758000Y-62550074D01*
X141726758Y-62707141D01*
X141665471Y-62855100D01*
X141576501Y-62988254D01*
X141463255Y-63101500D01*
X141330101Y-63190470D01*
X141182142Y-63251757D01*
X141025075Y-63282999D01*
X140864925Y-63282999D01*
X140707858Y-63251757D01*
X140559899Y-63190470D01*
X140426745Y-63101500D01*
X140313499Y-62988254D01*
X140224529Y-62855100D01*
X140163242Y-62707141D01*
X140132000Y-62550074D01*
X140132000Y-62389924D01*
X140163242Y-62232857D01*
X140224529Y-62084898D01*
X140313499Y-61951744D01*
X140426745Y-61838498D01*
X140559899Y-61749528D01*
X140707858Y-61688241D01*
X140864925Y-61656999D01*
X141025075Y-61656999D01*
X141182142Y-61688241D01*
X141182142Y-61688241D01*
G37*
G36*
X143722142Y-61688241D02*
G01*
X143870101Y-61749528D01*
X144003255Y-61838498D01*
X144116501Y-61951744D01*
X144205471Y-62084898D01*
X144266758Y-62232857D01*
X144298000Y-62389924D01*
X144298000Y-62550074D01*
X144266758Y-62707141D01*
X144205471Y-62855100D01*
X144116501Y-62988254D01*
X144003255Y-63101500D01*
X143870101Y-63190470D01*
X143722142Y-63251757D01*
X143565075Y-63282999D01*
X143404925Y-63282999D01*
X143247858Y-63251757D01*
X143099899Y-63190470D01*
X142966745Y-63101500D01*
X142853499Y-62988254D01*
X142764529Y-62855100D01*
X142703242Y-62707141D01*
X142672000Y-62550074D01*
X142672000Y-62389924D01*
X142703242Y-62232857D01*
X142764529Y-62084898D01*
X142853499Y-61951744D01*
X142966745Y-61838498D01*
X143099899Y-61749528D01*
X143247858Y-61688241D01*
X143404925Y-61656999D01*
X143565075Y-61656999D01*
X143722142Y-61688241D01*
X143722142Y-61688241D01*
G37*
G36*
X146262142Y-61688241D02*
G01*
X146410101Y-61749528D01*
X146543255Y-61838498D01*
X146656501Y-61951744D01*
X146745471Y-62084898D01*
X146806758Y-62232857D01*
X146838000Y-62389924D01*
X146838000Y-62550074D01*
X146806758Y-62707141D01*
X146745471Y-62855100D01*
X146656501Y-62988254D01*
X146543255Y-63101500D01*
X146410101Y-63190470D01*
X146262142Y-63251757D01*
X146105075Y-63282999D01*
X145944925Y-63282999D01*
X145787858Y-63251757D01*
X145639899Y-63190470D01*
X145506745Y-63101500D01*
X145393499Y-62988254D01*
X145304529Y-62855100D01*
X145243242Y-62707141D01*
X145212000Y-62550074D01*
X145212000Y-62389924D01*
X145243242Y-62232857D01*
X145304529Y-62084898D01*
X145393499Y-61951744D01*
X145506745Y-61838498D01*
X145639899Y-61749528D01*
X145787858Y-61688241D01*
X145944925Y-61656999D01*
X146105075Y-61656999D01*
X146262142Y-61688241D01*
X146262142Y-61688241D01*
G37*
G36*
X148802142Y-61688241D02*
G01*
X148950101Y-61749528D01*
X149083255Y-61838498D01*
X149196501Y-61951744D01*
X149285471Y-62084898D01*
X149346758Y-62232857D01*
X149378000Y-62389924D01*
X149378000Y-62550074D01*
X149346758Y-62707141D01*
X149285471Y-62855100D01*
X149196501Y-62988254D01*
X149083255Y-63101500D01*
X148950101Y-63190470D01*
X148802142Y-63251757D01*
X148645075Y-63282999D01*
X148484925Y-63282999D01*
X148327858Y-63251757D01*
X148179899Y-63190470D01*
X148046745Y-63101500D01*
X147933499Y-62988254D01*
X147844529Y-62855100D01*
X147783242Y-62707141D01*
X147752000Y-62550074D01*
X147752000Y-62389924D01*
X147783242Y-62232857D01*
X147844529Y-62084898D01*
X147933499Y-61951744D01*
X148046745Y-61838498D01*
X148179899Y-61749528D01*
X148327858Y-61688241D01*
X148484925Y-61656999D01*
X148645075Y-61656999D01*
X148802142Y-61688241D01*
X148802142Y-61688241D01*
G37*
G36*
X151342142Y-61688241D02*
G01*
X151490101Y-61749528D01*
X151623255Y-61838498D01*
X151736501Y-61951744D01*
X151825471Y-62084898D01*
X151886758Y-62232857D01*
X151918000Y-62389924D01*
X151918000Y-62550074D01*
X151886758Y-62707141D01*
X151825471Y-62855100D01*
X151736501Y-62988254D01*
X151623255Y-63101500D01*
X151490101Y-63190470D01*
X151342142Y-63251757D01*
X151185075Y-63282999D01*
X151024925Y-63282999D01*
X150867858Y-63251757D01*
X150719899Y-63190470D01*
X150586745Y-63101500D01*
X150473499Y-62988254D01*
X150384529Y-62855100D01*
X150323242Y-62707141D01*
X150292000Y-62550074D01*
X150292000Y-62389924D01*
X150323242Y-62232857D01*
X150384529Y-62084898D01*
X150473499Y-61951744D01*
X150586745Y-61838498D01*
X150719899Y-61749528D01*
X150867858Y-61688241D01*
X151024925Y-61656999D01*
X151185075Y-61656999D01*
X151342142Y-61688241D01*
X151342142Y-61688241D01*
G37*
G36*
X131022142Y-61688241D02*
G01*
X131170101Y-61749528D01*
X131303255Y-61838498D01*
X131416501Y-61951744D01*
X131505471Y-62084898D01*
X131566758Y-62232857D01*
X131598000Y-62389924D01*
X131598000Y-62550074D01*
X131566758Y-62707141D01*
X131505471Y-62855100D01*
X131416501Y-62988254D01*
X131303255Y-63101500D01*
X131170101Y-63190470D01*
X131022142Y-63251757D01*
X130865075Y-63282999D01*
X130704925Y-63282999D01*
X130547858Y-63251757D01*
X130399899Y-63190470D01*
X130266745Y-63101500D01*
X130153499Y-62988254D01*
X130064529Y-62855100D01*
X130003242Y-62707141D01*
X129972000Y-62550074D01*
X129972000Y-62389924D01*
X130003242Y-62232857D01*
X130064529Y-62084898D01*
X130153499Y-61951744D01*
X130266745Y-61838498D01*
X130399899Y-61749528D01*
X130547858Y-61688241D01*
X130704925Y-61656999D01*
X130865075Y-61656999D01*
X131022142Y-61688241D01*
X131022142Y-61688241D01*
G37*
M02*
