G04 #@! TF.GenerationSoftware,KiCad,Pcbnew,(5.1.2)-2*
G04 #@! TF.CreationDate,2019-08-20T13:38:56-07:00*
G04 #@! TF.ProjectId,pcb_design,7063625f-6465-4736-9967-6e2e6b696361,rev?*
G04 #@! TF.SameCoordinates,Original*
G04 #@! TF.FileFunction,Copper,L1,Top*
G04 #@! TF.FilePolarity,Positive*
%FSLAX46Y46*%
G04 Gerber Fmt 4.6, Leading zero omitted, Abs format (unit mm)*
G04 Created by KiCad (PCBNEW (5.1.2)-2) date 2019-08-20 13:38:56*
%MOMM*%
%LPD*%
G04 APERTURE LIST*
%ADD10C,1.524000*%
%ADD11C,1.300000*%
%ADD12C,0.250000*%
G04 APERTURE END LIST*
D10*
X151105000Y-62469999D03*
X151105000Y-65009999D03*
X148565000Y-62469999D03*
X148565000Y-65009999D03*
X146025000Y-62469999D03*
X146025000Y-65009999D03*
X143485000Y-62469999D03*
X143485000Y-65009999D03*
X140945000Y-62469999D03*
X140945000Y-65009999D03*
X138405000Y-62469999D03*
X138405000Y-65009999D03*
X135865000Y-62469999D03*
X135865000Y-65009999D03*
X133325000Y-62469999D03*
X133325000Y-65009999D03*
X130785000Y-62469999D03*
X130785000Y-65009999D03*
X128245000Y-62469999D03*
X128245000Y-65009999D03*
D11*
X137260000Y-72339999D03*
X137260000Y-69799999D03*
X134720000Y-69799999D03*
X134720000Y-72339999D03*
X132180000Y-72339999D03*
X132180000Y-69799999D03*
X129640000Y-72339999D03*
X129640000Y-69799999D03*
X127100000Y-72339999D03*
X124560000Y-95199999D03*
X127100000Y-97739999D03*
X149960000Y-100279999D03*
X152500000Y-97739999D03*
X152500000Y-100279999D03*
X155040000Y-97739999D03*
X155040000Y-74879999D03*
X155040000Y-74879999D03*
X152500000Y-72339999D03*
X139800000Y-69799999D03*
X139800000Y-72339999D03*
X142340000Y-69799999D03*
X142340000Y-72339999D03*
X144880000Y-69799999D03*
X144880000Y-72339999D03*
X147420000Y-69799999D03*
X147420000Y-72339999D03*
X149960000Y-69799999D03*
X149960000Y-72339999D03*
X152500000Y-69799999D03*
X155040000Y-72339999D03*
X152500000Y-74879999D03*
X155040000Y-77419999D03*
X152500000Y-77419999D03*
X155040000Y-79959999D03*
X152500000Y-79959999D03*
X155040000Y-82499999D03*
X152500000Y-82499999D03*
X155040000Y-85039999D03*
X152500000Y-85039999D03*
X155040000Y-87579999D03*
X152500000Y-87579999D03*
X155040000Y-90119999D03*
X152500000Y-90119999D03*
X155040000Y-92659999D03*
X152500000Y-92659999D03*
X155040000Y-95199999D03*
X152500000Y-95199999D03*
X149960000Y-97739999D03*
X147420000Y-100279999D03*
X147420000Y-97739999D03*
X144880000Y-100279999D03*
X144880000Y-97739999D03*
X142340000Y-100279999D03*
X142340000Y-97739999D03*
X139800000Y-100279999D03*
X139800000Y-97739999D03*
X137260000Y-100279999D03*
X137260000Y-97739999D03*
X134720000Y-100279999D03*
X134720000Y-97739999D03*
X132180000Y-100279999D03*
X132180000Y-97739999D03*
X129640000Y-100279999D03*
X129640000Y-97739999D03*
X127100000Y-100279999D03*
X124560000Y-97739999D03*
X127100000Y-95199999D03*
X124560000Y-92659999D03*
X127100000Y-92659999D03*
X124560000Y-90119999D03*
X127100000Y-90119999D03*
X124560000Y-87579999D03*
X127100000Y-87579999D03*
X124560000Y-85039999D03*
X127100000Y-85039999D03*
X124560000Y-82499999D03*
X127100000Y-82499999D03*
X124560000Y-79959999D03*
X127100000Y-79959999D03*
X124560000Y-77419999D03*
X127100000Y-77419999D03*
X124560000Y-74879999D03*
X127100000Y-74879999D03*
X124560000Y-72339999D03*
X127100000Y-69799999D03*
D10*
X128263800Y-107562200D03*
X128263800Y-105022200D03*
X130803800Y-107562200D03*
X130803800Y-105022200D03*
X133343800Y-107562200D03*
X133343800Y-105022200D03*
X135883800Y-107562200D03*
X135883800Y-105022200D03*
X138423800Y-107562200D03*
X138423800Y-105022200D03*
X140963800Y-107562200D03*
X140963800Y-105022200D03*
X143503800Y-107562200D03*
X143503800Y-105022200D03*
X146043800Y-107562200D03*
X146043800Y-105022200D03*
X148583800Y-107562200D03*
X148583800Y-105022200D03*
X151123800Y-107562200D03*
X151123800Y-105022200D03*
D12*
X133343800Y-105022200D02*
X131191600Y-102870000D01*
X131191600Y-102870000D02*
X124460000Y-102870000D01*
X124460000Y-102870000D02*
X122555000Y-100965000D01*
X122555000Y-100965000D02*
X122555000Y-74295000D01*
X122555000Y-74295000D02*
X122604999Y-74295000D01*
X122604999Y-74295000D02*
X124560000Y-72339999D01*
X133435362Y-99024637D02*
X134720000Y-97739999D01*
X133435362Y-103505000D02*
X133435362Y-99024637D01*
X134796799Y-104866437D02*
X133435362Y-103505000D01*
X135883800Y-107562200D02*
X134796799Y-106475199D01*
X134796799Y-106475199D02*
X134796799Y-104866437D01*
X144230001Y-97090000D02*
X144880000Y-97739999D01*
X143904999Y-96764998D02*
X144230001Y-97090000D01*
X136791999Y-96764998D02*
X143904999Y-96764998D01*
X135883800Y-97673197D02*
X136791999Y-96764998D01*
X135883800Y-105022200D02*
X135883800Y-97673197D01*
X139700000Y-106286000D02*
X138423800Y-107562200D01*
X139700000Y-104140000D02*
X139700000Y-106286000D01*
X140335000Y-103505000D02*
X139700000Y-104140000D01*
X144880000Y-100279999D02*
X141654999Y-103505000D01*
X141654999Y-103505000D02*
X140335000Y-103505000D01*
X138423800Y-105022200D02*
X138423800Y-99701200D01*
X146770001Y-98389998D02*
X147420000Y-97739999D01*
X146444999Y-98715000D02*
X146770001Y-98389998D01*
X139410000Y-98715000D02*
X146444999Y-98715000D01*
X138423800Y-99701200D02*
X139410000Y-98715000D01*
X142240000Y-106286000D02*
X142240000Y-104677238D01*
X140963800Y-107562200D02*
X142240000Y-106286000D01*
X142982039Y-103935199D02*
X143714801Y-103935199D01*
X143714801Y-103935199D02*
X143815789Y-103834211D01*
X142240000Y-104677238D02*
X142982039Y-103935199D01*
X143815789Y-103834211D02*
X143815790Y-103196390D01*
X146770001Y-100929998D02*
X147420000Y-100279999D01*
X145994989Y-101705010D02*
X146770001Y-100929998D01*
X145307170Y-101705010D02*
X145994989Y-101705010D01*
X143815790Y-103196390D02*
X145307170Y-101705010D01*
X140963800Y-104781200D02*
X140963800Y-105022200D01*
X148640001Y-97739999D02*
X149960000Y-97739999D01*
X148590000Y-97790000D02*
X148640001Y-97739999D01*
X148590000Y-98425000D02*
X148590000Y-97790000D01*
X147955000Y-99060000D02*
X148590000Y-98425000D01*
X146050000Y-100206997D02*
X147196997Y-99060000D01*
X140963800Y-105022200D02*
X142240000Y-103746000D01*
X147196997Y-99060000D02*
X147955000Y-99060000D01*
X146050000Y-100553001D02*
X146050000Y-100206997D01*
X145348001Y-101255000D02*
X146050000Y-100553001D01*
X145025828Y-101255000D02*
X145348001Y-101255000D01*
X142534828Y-103746000D02*
X145025828Y-101255000D01*
X142240000Y-103746000D02*
X142534828Y-103746000D01*
X147289969Y-102950030D02*
X149960000Y-100279999D01*
X145334970Y-102950030D02*
X147289969Y-102950030D01*
X144956799Y-103328201D02*
X145334970Y-102950030D01*
X143503800Y-107562200D02*
X144956799Y-106109201D01*
X144956799Y-106109201D02*
X144956799Y-103328201D01*
X151130000Y-98425000D02*
X151130000Y-97790000D01*
X149491999Y-99304998D02*
X150250002Y-99304998D01*
X151130000Y-97790000D02*
X151180001Y-97739999D01*
X150250002Y-99304998D02*
X151130000Y-98425000D01*
X148590000Y-100206997D02*
X149491999Y-99304998D01*
X148590000Y-100553001D02*
X148590000Y-100206997D01*
X151180001Y-97739999D02*
X152500000Y-97739999D01*
X146642981Y-102500020D02*
X148590000Y-100553001D01*
X145148570Y-102500020D02*
X146642981Y-102500020D01*
X144265799Y-103382791D02*
X145148570Y-102500020D01*
X144265799Y-104260201D02*
X144265799Y-103382791D01*
X143503800Y-105022200D02*
X144265799Y-104260201D01*
X147496799Y-107186831D02*
X147496799Y-104500439D01*
X146043800Y-107562200D02*
X147121430Y-107562200D01*
X147121430Y-107562200D02*
X147496799Y-107186831D01*
X152568001Y-103035181D02*
X154305000Y-104772180D01*
X147496799Y-104500439D02*
X148962057Y-103035181D01*
X148962057Y-103035181D02*
X152568001Y-103035181D01*
X154305000Y-104772180D02*
X154305000Y-106040770D01*
X154309230Y-106045000D02*
X156210000Y-106045000D01*
X154305000Y-106040770D02*
X154309230Y-106045000D01*
X156210000Y-106045000D02*
X156845000Y-105410000D01*
X156845000Y-105410000D02*
X156845000Y-97155000D01*
X156845000Y-97155000D02*
X156210000Y-96520000D01*
X154816997Y-96520000D02*
X153670000Y-97666997D01*
X156210000Y-96520000D02*
X154816997Y-96520000D01*
X153670000Y-99109999D02*
X152500000Y-100279999D01*
X153670000Y-97666997D02*
X153670000Y-99109999D01*
X156159999Y-97739999D02*
X155040000Y-97739999D01*
X156210000Y-97790000D02*
X156159999Y-97739999D01*
X148480828Y-102585172D02*
X152754402Y-102585172D01*
X146043800Y-105022200D02*
X148480828Y-102585172D01*
X156210000Y-104775000D02*
X156210000Y-97790000D01*
X154755009Y-104585779D02*
X154755009Y-104590009D01*
X152754402Y-102585172D02*
X154755009Y-104585779D01*
X154755009Y-104590009D02*
X154940000Y-104775000D01*
X154940000Y-104775000D02*
X154940000Y-105410000D01*
X154940000Y-105410000D02*
X155575000Y-105410000D01*
X155575000Y-105410000D02*
X156210000Y-104775000D01*
X153719999Y-93980000D02*
X152500000Y-95199999D01*
X157480000Y-93980000D02*
X153719999Y-93980000D01*
X158115000Y-106680000D02*
X158115000Y-94615000D01*
X154306410Y-107315000D02*
X157480000Y-107315000D01*
X153035000Y-106043590D02*
X154306410Y-107315000D01*
X149860000Y-106286000D02*
X149860000Y-104677238D01*
X149860000Y-104677238D02*
X150602039Y-103935199D01*
X157480000Y-107315000D02*
X158115000Y-106680000D01*
X150602039Y-103935199D02*
X152195199Y-103935199D01*
X158115000Y-94615000D02*
X157480000Y-93980000D01*
X152195199Y-103935199D02*
X153035000Y-104775000D01*
X148583800Y-107562200D02*
X149860000Y-106286000D01*
X153035000Y-104775000D02*
X153035000Y-106043590D01*
X156794999Y-95199999D02*
X155040000Y-95199999D01*
X157480000Y-95885000D02*
X156794999Y-95199999D01*
X156845000Y-106680000D02*
X157480000Y-106045000D01*
X150120810Y-103485190D02*
X152381600Y-103485190D01*
X148583800Y-105022200D02*
X150120810Y-103485190D01*
X152381600Y-103485190D02*
X153670000Y-104773590D01*
X157480000Y-106045000D02*
X157480000Y-95885000D01*
X153670000Y-104773590D02*
X153670000Y-106042180D01*
X153670000Y-106042180D02*
X154307820Y-106680000D01*
X154307820Y-106680000D02*
X156845000Y-106680000D01*
X152201430Y-107562200D02*
X153224230Y-108585000D01*
X151123800Y-107562200D02*
X152201430Y-107562200D01*
X153224230Y-108585000D02*
X158750000Y-108585000D01*
X158750000Y-108585000D02*
X159385000Y-107950000D01*
X159385000Y-107950000D02*
X159385000Y-92075000D01*
X159385000Y-92075000D02*
X158750000Y-91440000D01*
X153719999Y-91440000D02*
X152500000Y-92659999D01*
X158750000Y-91440000D02*
X153719999Y-91440000D01*
X158064999Y-92659999D02*
X155040000Y-92659999D01*
X158750000Y-93345000D02*
X158064999Y-92659999D01*
X151885799Y-105784199D02*
X152139199Y-105784199D01*
X151123800Y-105022200D02*
X151885799Y-105784199D01*
X152139199Y-105784199D02*
X154305000Y-107950000D01*
X154305000Y-107950000D02*
X158115000Y-107950000D01*
X158115000Y-107950000D02*
X158750000Y-107315000D01*
X158750000Y-107315000D02*
X158750000Y-93345000D01*
X151850001Y-70449998D02*
X152500000Y-69799999D01*
X150430020Y-73759980D02*
X151524999Y-72665001D01*
X129544969Y-73764969D02*
X149447178Y-73764969D01*
X149447178Y-73764969D02*
X149452167Y-73759980D01*
X130785000Y-62469999D02*
X129247989Y-60932988D01*
X129247989Y-60932988D02*
X127536839Y-60932988D01*
X127568001Y-71364998D02*
X128440000Y-72236997D01*
X127536839Y-60932988D02*
X125260010Y-63209817D01*
X151524999Y-70775000D02*
X151850001Y-70449998D01*
X151524999Y-72665001D02*
X151524999Y-70775000D01*
X125260010Y-63209817D02*
X125260010Y-70324187D01*
X125260010Y-70324187D02*
X126300821Y-71364998D01*
X149452167Y-73759980D02*
X150430020Y-73759980D01*
X128440000Y-72660000D02*
X129544969Y-73764969D01*
X126300821Y-71364998D02*
X127568001Y-71364998D01*
X128440000Y-72236997D02*
X128440000Y-72660000D01*
X149819978Y-74664989D02*
X149824967Y-74660000D01*
X154390001Y-72989998D02*
X155040000Y-72339999D01*
X154064999Y-73315000D02*
X154390001Y-72989998D01*
X152161409Y-73315000D02*
X154064999Y-73315000D01*
X150811420Y-74664989D02*
X152161409Y-73315000D01*
X149819978Y-74664989D02*
X150811420Y-74664989D01*
X126585587Y-73904998D02*
X128194998Y-73904998D01*
X125674990Y-72011987D02*
X125674990Y-72994401D01*
X124359990Y-70696987D02*
X125674990Y-72011987D01*
X125674990Y-72994401D02*
X126585587Y-73904998D01*
X133325000Y-65009999D02*
X134777999Y-63557000D01*
X134777999Y-63557000D02*
X134777999Y-62208958D01*
X134777999Y-62208958D02*
X132602009Y-60032970D01*
X132602009Y-60032970D02*
X127164036Y-60032971D01*
X127164036Y-60032971D02*
X124359990Y-62837017D01*
X124359990Y-62837017D02*
X124359990Y-70696987D01*
X149819977Y-74664988D02*
X149819978Y-74664989D01*
X128954988Y-74664988D02*
X149819977Y-74664988D01*
X128194998Y-73904998D02*
X128954988Y-74664988D01*
X150630009Y-74209990D02*
X152500000Y-72339999D01*
X149638567Y-74209990D02*
X150630009Y-74209990D01*
X149633578Y-74214979D02*
X149638567Y-74209990D01*
X129141389Y-74214979D02*
X149633578Y-74214979D01*
X126631999Y-73315000D02*
X128241410Y-73315000D01*
X126124999Y-72808000D02*
X126631999Y-73315000D01*
X133325000Y-62469999D02*
X133325000Y-61392369D01*
X126124999Y-71825586D02*
X126124999Y-72808000D01*
X132415610Y-60482979D02*
X127350437Y-60482980D01*
X133325000Y-61392369D02*
X132415610Y-60482979D01*
X127350437Y-60482980D02*
X124810000Y-63023417D01*
X128241410Y-73315000D02*
X129141389Y-74214979D01*
X124810000Y-63023417D02*
X124810000Y-70510587D01*
X124810000Y-70510587D02*
X126124999Y-71825586D01*
X156154989Y-75994988D02*
X155040000Y-74879999D01*
X156915012Y-75994988D02*
X156154989Y-75994988D01*
X135865000Y-65009999D02*
X137402011Y-66547010D01*
X138964019Y-66547010D02*
X140807059Y-68390050D01*
X137402011Y-66547010D02*
X138964019Y-66547010D01*
X140807059Y-68390050D02*
X156650050Y-68390050D01*
X157249970Y-75660030D02*
X156915012Y-75994988D01*
X156650050Y-68390050D02*
X157249970Y-68989970D01*
X157249970Y-68989970D02*
X157249970Y-75660030D01*
X154064999Y-76444998D02*
X153149999Y-75529998D01*
X157255002Y-76444998D02*
X154064999Y-76444998D01*
X157680000Y-76020000D02*
X157255002Y-76444998D01*
X157699980Y-76020000D02*
X157680000Y-76020000D01*
X157699980Y-68279980D02*
X157699980Y-76020000D01*
X157360040Y-67940040D02*
X157699980Y-68279980D01*
X136942630Y-62469999D02*
X137317999Y-62845368D01*
X140993459Y-67940040D02*
X157360040Y-67940040D01*
X135865000Y-62469999D02*
X136942630Y-62469999D01*
X137317999Y-65531760D02*
X137883239Y-66097000D01*
X137883239Y-66097000D02*
X139150419Y-66097000D01*
X153149999Y-75529998D02*
X152500000Y-74879999D01*
X137317999Y-62845368D02*
X137317999Y-65531760D01*
X139150419Y-66097000D02*
X140993459Y-67940040D01*
X156154989Y-78534988D02*
X155040000Y-77419999D01*
X157795012Y-78534988D02*
X156154989Y-78534988D01*
X138405000Y-65009999D02*
X138699828Y-65009999D01*
X138699828Y-65009999D02*
X141179859Y-67490030D01*
X141179859Y-67490030D02*
X157850030Y-67490030D01*
X157850030Y-67490030D02*
X158149990Y-67789990D01*
X158149990Y-67789990D02*
X158149990Y-78180010D01*
X158149990Y-78180010D02*
X157795012Y-78534988D01*
X154064999Y-78984998D02*
X153149999Y-78069998D01*
X157985002Y-78984998D02*
X154064999Y-78984998D01*
X158600000Y-78370000D02*
X157985002Y-78984998D01*
X158600000Y-67220000D02*
X158600000Y-78370000D01*
X158420020Y-67040020D02*
X158600000Y-67220000D01*
X153149999Y-78069998D02*
X152500000Y-77419999D01*
X139857999Y-65531760D02*
X141366259Y-67040020D01*
X141366259Y-67040020D02*
X158420020Y-67040020D01*
X139857999Y-63922998D02*
X139857999Y-65531760D01*
X138405000Y-62469999D02*
X139857999Y-63922998D01*
X156154989Y-81074988D02*
X155040000Y-79959999D01*
X140945000Y-65009999D02*
X142525011Y-66590010D01*
X158963600Y-66590010D02*
X159059980Y-66686390D01*
X159059980Y-66686390D02*
X159059980Y-80770020D01*
X142525011Y-66590010D02*
X158963600Y-66590010D01*
X159059980Y-80770020D02*
X158755012Y-81074988D01*
X158755012Y-81074988D02*
X156154989Y-81074988D01*
X154064999Y-81524998D02*
X152500000Y-79959999D01*
X159265002Y-81524998D02*
X154064999Y-81524998D01*
X159509990Y-81280010D02*
X159265002Y-81524998D01*
X142397999Y-63922998D02*
X142397999Y-65531760D01*
X140945000Y-62469999D02*
X142397999Y-63922998D01*
X142397999Y-65531760D02*
X143006239Y-66140000D01*
X143006239Y-66140000D02*
X159150000Y-66140000D01*
X159150000Y-66140000D02*
X159509990Y-66499990D01*
X159509990Y-66499990D02*
X159509990Y-81280010D01*
M02*
