G04 #@! TF.GenerationSoftware,KiCad,Pcbnew,(5.1.2)-2*
G04 #@! TF.CreationDate,2019-08-20T13:38:56-07:00*
G04 #@! TF.ProjectId,pcb_design,7063625f-6465-4736-9967-6e2e6b696361,rev?*
G04 #@! TF.SameCoordinates,Original*
G04 #@! TF.FileFunction,Copper,L2,Bot*
G04 #@! TF.FilePolarity,Positive*
%FSLAX46Y46*%
G04 Gerber Fmt 4.6, Leading zero omitted, Abs format (unit mm)*
G04 Created by KiCad (PCBNEW (5.1.2)-2) date 2019-08-20 13:38:56*
%MOMM*%
%LPD*%
G04 APERTURE LIST*
%ADD10C,1.524000*%
%ADD11C,1.300000*%
%ADD12C,0.250000*%
G04 APERTURE END LIST*
D10*
X151105000Y-62469999D03*
X151105000Y-65009999D03*
X148565000Y-62469999D03*
X148565000Y-65009999D03*
X146025000Y-62469999D03*
X146025000Y-65009999D03*
X143485000Y-62469999D03*
X143485000Y-65009999D03*
X140945000Y-62469999D03*
X140945000Y-65009999D03*
X138405000Y-62469999D03*
X138405000Y-65009999D03*
X135865000Y-62469999D03*
X135865000Y-65009999D03*
X133325000Y-62469999D03*
X133325000Y-65009999D03*
X130785000Y-62469999D03*
X130785000Y-65009999D03*
X128245000Y-62469999D03*
X128245000Y-65009999D03*
D11*
X137260000Y-72339999D03*
X137260000Y-69799999D03*
X134720000Y-69799999D03*
X134720000Y-72339999D03*
X132180000Y-72339999D03*
X132180000Y-69799999D03*
X129640000Y-72339999D03*
X129640000Y-69799999D03*
X127100000Y-72339999D03*
X124560000Y-95199999D03*
X127100000Y-97739999D03*
X149960000Y-100279999D03*
X152500000Y-97739999D03*
X152500000Y-100279999D03*
X155040000Y-97739999D03*
X155040000Y-74879999D03*
X155040000Y-74879999D03*
X152500000Y-72339999D03*
X139800000Y-69799999D03*
X139800000Y-72339999D03*
X142340000Y-69799999D03*
X142340000Y-72339999D03*
X144880000Y-69799999D03*
X144880000Y-72339999D03*
X147420000Y-69799999D03*
X147420000Y-72339999D03*
X149960000Y-69799999D03*
X149960000Y-72339999D03*
X152500000Y-69799999D03*
X155040000Y-72339999D03*
X152500000Y-74879999D03*
X155040000Y-77419999D03*
X152500000Y-77419999D03*
X155040000Y-79959999D03*
X152500000Y-79959999D03*
X155040000Y-82499999D03*
X152500000Y-82499999D03*
X155040000Y-85039999D03*
X152500000Y-85039999D03*
X155040000Y-87579999D03*
X152500000Y-87579999D03*
X155040000Y-90119999D03*
X152500000Y-90119999D03*
X155040000Y-92659999D03*
X152500000Y-92659999D03*
X155040000Y-95199999D03*
X152500000Y-95199999D03*
X149960000Y-97739999D03*
X147420000Y-100279999D03*
X147420000Y-97739999D03*
X144880000Y-100279999D03*
X144880000Y-97739999D03*
X142340000Y-100279999D03*
X142340000Y-97739999D03*
X139800000Y-100279999D03*
X139800000Y-97739999D03*
X137260000Y-100279999D03*
X137260000Y-97739999D03*
X134720000Y-100279999D03*
X134720000Y-97739999D03*
X132180000Y-100279999D03*
X132180000Y-97739999D03*
X129640000Y-100279999D03*
X129640000Y-97739999D03*
X127100000Y-100279999D03*
X124560000Y-97739999D03*
X127100000Y-95199999D03*
X124560000Y-92659999D03*
X127100000Y-92659999D03*
X124560000Y-90119999D03*
X127100000Y-90119999D03*
X124560000Y-87579999D03*
X127100000Y-87579999D03*
X124560000Y-85039999D03*
X127100000Y-85039999D03*
X124560000Y-82499999D03*
X127100000Y-82499999D03*
X124560000Y-79959999D03*
X127100000Y-79959999D03*
X124560000Y-77419999D03*
X127100000Y-77419999D03*
X124560000Y-74879999D03*
X127100000Y-74879999D03*
X124560000Y-72339999D03*
X127100000Y-69799999D03*
D10*
X128263800Y-107562200D03*
X128263800Y-105022200D03*
X130803800Y-107562200D03*
X130803800Y-105022200D03*
X133343800Y-107562200D03*
X133343800Y-105022200D03*
X135883800Y-107562200D03*
X135883800Y-105022200D03*
X138423800Y-107562200D03*
X138423800Y-105022200D03*
X140963800Y-107562200D03*
X140963800Y-105022200D03*
X143503800Y-107562200D03*
X143503800Y-105022200D03*
X146043800Y-107562200D03*
X146043800Y-105022200D03*
X148583800Y-107562200D03*
X148583800Y-105022200D03*
X151123800Y-107562200D03*
X151123800Y-105022200D03*
D12*
X146770001Y-72989998D02*
X147420000Y-72339999D01*
X146444999Y-73315000D02*
X146770001Y-72989998D01*
X129171999Y-73315000D02*
X146444999Y-73315000D01*
X128245000Y-72388001D02*
X129171999Y-73315000D01*
X128245000Y-65009999D02*
X128245000Y-72388001D01*
X129332001Y-63557000D02*
X128245000Y-62469999D01*
X130927000Y-63557000D02*
X129332001Y-63557000D01*
X149960000Y-69799999D02*
X148984999Y-70775000D01*
X132237999Y-64867999D02*
X130927000Y-63557000D01*
X148984999Y-70775000D02*
X134251999Y-70775000D01*
X134251999Y-70775000D02*
X133155001Y-69678002D01*
X133155001Y-69678002D02*
X133155001Y-66448762D01*
X133155001Y-66448762D02*
X132237999Y-65531760D01*
X132237999Y-65531760D02*
X132237999Y-64867999D01*
X149310001Y-71690000D02*
X149960000Y-72339999D01*
X148984999Y-71364998D02*
X149310001Y-71690000D01*
X132301997Y-71364998D02*
X148984999Y-71364998D01*
X130785000Y-69848001D02*
X132301997Y-71364998D01*
X130785000Y-65009999D02*
X130785000Y-69848001D01*
X156318562Y-83340000D02*
X155880001Y-83340000D01*
X156027180Y-65790000D02*
X156318562Y-66081382D01*
X145228910Y-66753909D02*
X146496092Y-66753909D01*
X143485000Y-65009999D02*
X145228910Y-66753909D01*
X156318562Y-66081382D02*
X156318562Y-83340000D01*
X146496092Y-66753909D02*
X148089231Y-68347048D01*
X148089231Y-68347048D02*
X152688593Y-68347047D01*
X155880001Y-83340000D02*
X155040000Y-82499999D01*
X152688593Y-68347047D02*
X155245640Y-65790000D01*
X155245640Y-65790000D02*
X156027180Y-65790000D01*
X145503239Y-66097000D02*
X146475591Y-66097000D01*
X144572001Y-65165762D02*
X145503239Y-66097000D01*
X143485000Y-62469999D02*
X144572001Y-63557000D01*
X144572001Y-63557000D02*
X144572001Y-65165762D01*
X148275631Y-67897038D02*
X152502192Y-67897038D01*
X146475591Y-66097000D02*
X148275631Y-67897038D01*
X155069230Y-65330000D02*
X156203590Y-65330000D01*
X152502192Y-67897038D02*
X155069230Y-65330000D01*
X156203590Y-65330000D02*
X156768572Y-65894982D01*
X156768572Y-65894982D02*
X156768572Y-83661428D01*
X156768572Y-83661428D02*
X156365002Y-84064998D01*
X154064999Y-84064998D02*
X152500000Y-82499999D01*
X156365002Y-84064998D02*
X154064999Y-84064998D01*
X152315792Y-67447028D02*
X154892790Y-64870030D01*
X146025000Y-65009999D02*
X148462030Y-67447029D01*
X148462030Y-67447029D02*
X152315792Y-67447028D01*
X154892790Y-64870030D02*
X156394390Y-64870030D01*
X156394390Y-64884390D02*
X157218582Y-65708582D01*
X156394390Y-64870030D02*
X156394390Y-64884390D01*
X157218582Y-65708582D02*
X157218582Y-84951418D01*
X157130001Y-85039999D02*
X155040000Y-85039999D01*
X157218582Y-84951418D02*
X157130001Y-85039999D01*
X146025000Y-62469999D02*
X147300000Y-63744999D01*
X148943258Y-66997019D02*
X152129391Y-66997019D01*
X147300000Y-63744999D02*
X147300000Y-65353761D01*
X147300000Y-65353761D02*
X148943258Y-66997019D01*
X152129391Y-66997019D02*
X154706390Y-64420020D01*
X154706390Y-64420020D02*
X156580790Y-64420020D01*
X156580790Y-64420020D02*
X157668592Y-65507822D01*
X157668592Y-65507822D02*
X157668592Y-85851408D01*
X157668592Y-85851408D02*
X157120000Y-86400000D01*
X153860001Y-86400000D02*
X152500000Y-85039999D01*
X157120000Y-86400000D02*
X153860001Y-86400000D01*
X151942990Y-66547010D02*
X154519990Y-63970010D01*
X148565000Y-65009999D02*
X150102011Y-66547010D01*
X150102011Y-66547010D02*
X151942990Y-66547010D01*
X154519990Y-63970010D02*
X156767190Y-63970010D01*
X156767190Y-63970010D02*
X158118602Y-65321422D01*
X158118602Y-65321422D02*
X158118602Y-87998602D01*
X155940001Y-88480000D02*
X155040000Y-87579999D01*
X157637204Y-88480000D02*
X158118602Y-87998602D01*
X155940001Y-88480000D02*
X157637204Y-88480000D01*
X150017999Y-63922998D02*
X148565000Y-62469999D01*
X150583239Y-66097000D02*
X151703000Y-66097000D01*
X150017999Y-63922998D02*
X150017999Y-65531760D01*
X150017999Y-65531760D02*
X150583239Y-66097000D01*
X154280000Y-63520000D02*
X156953590Y-63520000D01*
X151703000Y-66097000D02*
X154280000Y-63520000D01*
X158553590Y-65120000D02*
X158557180Y-65120000D01*
X156953590Y-63520000D02*
X158553590Y-65120000D01*
X158557180Y-65120000D02*
X158609970Y-65172790D01*
X158609970Y-65172790D02*
X158609970Y-88840030D01*
X153149999Y-88229998D02*
X152500000Y-87579999D01*
X154064999Y-89144998D02*
X153149999Y-88229998D01*
X158305002Y-89144998D02*
X154064999Y-89144998D01*
X158609970Y-88840030D02*
X158305002Y-89144998D01*
X151105000Y-65009999D02*
X153194990Y-62920009D01*
X153194990Y-62920009D02*
X156993599Y-62920009D01*
X156993599Y-62923599D02*
X158739990Y-64669990D01*
X156993599Y-62920009D02*
X156993599Y-62923599D01*
X158739990Y-64669990D02*
X158743580Y-64669990D01*
X158743580Y-64669990D02*
X159059980Y-64986390D01*
X159059980Y-64986390D02*
X159059980Y-90400020D01*
X159059980Y-90400020D02*
X158640000Y-90820000D01*
X155740001Y-90820000D02*
X155040000Y-90119999D01*
X158640000Y-90820000D02*
X155740001Y-90820000D01*
X153860001Y-91480000D02*
X152500000Y-90119999D01*
X158870000Y-91480000D02*
X153860001Y-91480000D01*
X159509990Y-90840010D02*
X158870000Y-91480000D01*
X159509990Y-64799990D02*
X159509990Y-90840010D01*
X151105000Y-62469999D02*
X157179999Y-62469999D01*
X157179999Y-62469999D02*
X159509990Y-64799990D01*
M02*
