G04 #@! TF.GenerationSoftware,KiCad,Pcbnew,(5.1.2)-2*
G04 #@! TF.CreationDate,2019-08-20T13:38:56-07:00*
G04 #@! TF.ProjectId,pcb_design,7063625f-6465-4736-9967-6e2e6b696361,rev?*
G04 #@! TF.SameCoordinates,Original*
G04 #@! TF.FileFunction,Profile,NP*
%FSLAX46Y46*%
G04 Gerber Fmt 4.6, Leading zero omitted, Abs format (unit mm)*
G04 Created by KiCad (PCBNEW (5.1.2)-2) date 2019-08-20 13:38:56*
%MOMM*%
%LPD*%
G04 APERTURE LIST*
%ADD10C,0.050000*%
G04 APERTURE END LIST*
D10*
X129675000Y-75014999D02*
X149675000Y-75014999D01*
X129675000Y-95014999D02*
X129675000Y-75014999D01*
X149675000Y-95014999D02*
X129675000Y-95014999D01*
X149675000Y-85014999D02*
X149675000Y-95014999D01*
X149675000Y-85014999D02*
X149675000Y-75014999D01*
X111535000Y-95250000D02*
X111535000Y-69250000D01*
X111535000Y-69250000D02*
X119535000Y-69250000D01*
X111535000Y-95250000D02*
X111535000Y-101250000D01*
X119535000Y-101250000D02*
X111535000Y-101250000D01*
X119535000Y-69250000D02*
X119535000Y-101250000D01*
X167860000Y-101250000D02*
X159860000Y-101250000D01*
X167860000Y-69250000D02*
X167860000Y-101250000D01*
X159860000Y-69250000D02*
X167860000Y-69250000D01*
X159860000Y-95250000D02*
X159860000Y-69250000D01*
X159860000Y-95250000D02*
X159860000Y-101250000D01*
X109220000Y-58420000D02*
X109220000Y-59690000D01*
X170180000Y-58420000D02*
X109220000Y-58420000D01*
X170180000Y-111760000D02*
X170180000Y-58420000D01*
X109220000Y-111760000D02*
X170180000Y-111760000D01*
X109220000Y-110490000D02*
X109220000Y-111760000D01*
X109220000Y-59690000D02*
X109220000Y-110490000D01*
M02*
